<svg width="39" height="34" viewBox="0 0 39 34" fill="none" xmlns="http://www.w3.org/2000/svg">
<g clip-path="url(#clip0_211_2052)">
<path d="M38.9553 13.8241C38.9593 13.7946 38.9593 13.7647 38.9553 13.7352C38.9591 13.7111 38.9591 13.6866 38.9553 13.6624L38.6666 11.5852C38.625 11.3366 38.5137 11.1043 38.3451 10.9143L38.2956 10.8577L38.205 10.7688L33.2087 6.54955L33.3488 6.68697C33.2342 6.55247 33.0902 6.44489 32.9276 6.37215C32.7649 6.29941 32.5877 6.26336 32.409 6.26666H30.8919C30.6452 6.26187 30.4042 6.33876 30.2076 6.4849C30.0012 6.33964 29.7527 6.26314 29.4986 6.26666H27.9815C27.7826 6.26349 27.5863 6.3119 27.4126 6.407C27.2388 6.5021 27.0938 6.6405 26.9922 6.8082C26.8355 7.04773 26.7766 7.33632 26.8273 7.61649L27.0169 8.9259C26.8913 8.85609 26.7491 8.81986 26.6047 8.82084H19.2586C18.9951 8.82246 18.7376 8.89819 18.5166 9.03906C18.3029 9.17019 18.1314 9.35794 18.0219 9.58061L17.453 9.10373C17.2291 8.90062 16.9336 8.79054 16.6286 8.79659H5.1025C4.838 8.80131 4.57937 8.87375 4.35225 9.00674C4.04153 9.18503 3.81381 9.47494 3.71739 9.81502L0.0567492 21.818C-0.0116487 22.0158 -0.0183771 22.2291 0.0374256 22.4307C0.0932282 22.6322 0.209035 22.8129 0.370051 22.9496C0.412007 22.9845 0.456061 23.0169 0.501969 23.0466C0.501969 23.0466 0.427755 22.9981 0.386532 22.9577L5.38284 27.185C5.59419 27.3758 5.87053 27.4824 6.15779 27.4841H17.7746C18.0399 27.4773 18.2987 27.402 18.5249 27.2658C18.6528 27.1973 18.7672 27.107 18.8629 26.9991L18.9041 26.9425L18.9701 26.8617L19.0195 26.7728L19.5637 27.2335C19.772 27.4167 20.0424 27.5175 20.3222 27.5164H31.9637C32.2287 27.5078 32.487 27.4326 32.714 27.2982C32.839 27.2255 32.9528 27.1356 33.052 27.0314L33.0932 26.9749L33.1592 26.8941C33.1942 26.8429 33.2247 26.7888 33.2499 26.7323C33.2768 26.6834 33.2989 26.6319 33.3158 26.5788L36.6549 15.6185V15.5215C36.659 15.4839 36.659 15.446 36.6549 15.4083V15.3356C36.6589 15.3115 36.6589 15.287 36.6549 15.2628C36.6587 15.2117 36.6587 15.1604 36.6549 15.1093H37.7268C37.82 15.1176 37.9138 15.1176 38.0071 15.1093H38.0813C38.1416 15.0916 38.1997 15.0672 38.2544 15.0365H38.3369L38.4853 14.9234L38.5512 14.8749L38.6666 14.7294V14.6809L38.7491 14.5435C38.7445 14.5167 38.7445 14.4894 38.7491 14.4627C38.7447 14.4495 38.7447 14.4354 38.7491 14.4222C38.7666 14.3749 38.7804 14.3262 38.7903 14.2767C38.7865 14.2608 38.7865 14.2442 38.7903 14.2282C38.7863 14.2042 38.7863 14.1796 38.7903 14.1555C38.7903 14.1555 38.9553 13.8403 38.9553 13.8241Z" fill="black"/>
<path d="M16.9666 9.71806C17.0104 9.75686 17.041 9.80788 17.0542 9.86425C17.0675 9.92061 17.0628 9.97961 17.0409 10.0333L13.3885 22.0282C13.3425 22.1592 13.2484 22.2687 13.1246 22.3354C13.0239 22.4014 12.9074 22.4404 12.7866 22.4485H1.17807C1.07893 22.4439 0.985006 22.4036 0.914232 22.3354C0.87213 22.2972 0.842581 22.2476 0.829362 22.1929C0.816144 22.1382 0.819866 22.0809 0.840033 22.0282L4.50068 10.0333C4.54286 9.90068 4.63399 9.78826 4.75626 9.71806C4.85862 9.65676 4.97461 9.62071 5.09429 9.61298H16.7028C16.8012 9.61391 16.8955 9.65148 16.9666 9.71806ZM10.9068 19.6114L13.0916 12.45H6.9741L4.79747 19.6114H10.9068ZM28.0475 9.8393C28.0871 9.88442 28.1366 9.92021 28.1923 9.944C28.248 9.96778 28.3084 9.97897 28.3691 9.9767H29.8778C29.9353 9.97726 29.9919 9.96344 30.0424 9.93657C30.0929 9.9097 30.1356 9.87066 30.1664 9.82313C30.1932 9.78601 30.2121 9.74398 30.222 9.69955C30.2319 9.65512 30.2326 9.60919 30.2241 9.56449L29.9273 7.43062C29.8991 7.33186 29.8483 7.24066 29.7789 7.16388C29.7393 7.11876 29.6898 7.08297 29.6341 7.05918C29.5785 7.03539 29.518 7.02422 29.4574 7.02647H27.9486C27.8911 7.02593 27.8345 7.03974 27.784 7.06661C27.7335 7.09348 27.6908 7.13252 27.66 7.18005C27.6023 7.29321 27.5776 7.36595 27.6023 7.43062L27.9074 9.56449C27.923 9.66839 27.9721 9.76467 28.0475 9.8393ZM32.8377 7.41445C32.8094 7.31569 32.7586 7.22449 32.6893 7.14772C32.6513 7.10276 32.6033 7.06698 32.549 7.04315C32.4946 7.01932 32.4354 7.00808 32.376 7.01031H30.8589C30.8024 7.00873 30.7466 7.02217 30.6972 7.04921C30.6479 7.07624 30.6069 7.11587 30.5787 7.16388C30.5238 7.23559 30.5 7.32566 30.5127 7.41445L30.8177 9.54832C30.8369 9.65112 30.8855 9.74645 30.9579 9.82313C30.9982 9.86737 31.0478 9.90256 31.1033 9.92627C31.1589 9.94999 31.2189 9.96168 31.2794 9.96053H32.7965C32.8528 9.96127 32.9084 9.94747 32.9575 9.92051C33.0068 9.89356 33.0479 9.85441 33.0768 9.80697C33.1055 9.77081 33.1255 9.7288 33.1355 9.68404C33.1455 9.63929 33.1451 9.59292 33.1345 9.54832L32.8377 7.41445ZM26.7201 10.6476L26.5717 9.59681H19.2587C19.1439 9.60302 19.0328 9.63931 18.9371 9.70189C18.8764 9.73435 18.8235 9.77935 18.7822 9.83377C18.741 9.8882 18.7123 9.95075 18.6981 10.0171L18.0879 12.0216C18.0636 12.0717 18.0552 12.128 18.0641 12.1828C18.0729 12.2376 18.0985 12.2885 18.1374 12.3288C18.2069 12.3929 18.2977 12.4302 18.393 12.4339H27.2808L25.0959 19.5953H16.2329C16.1186 19.5978 16.0073 19.6314 15.9113 19.6923C15.7947 19.7649 15.7096 19.8771 15.6722 20.0075L15.0539 22.0121C15.0337 22.0635 15.0284 22.1194 15.0386 22.1736C15.0488 22.2278 15.074 22.2782 15.1116 22.3192C15.1789 22.3875 15.2704 22.428 15.3672 22.4323H27.0087C27.1291 22.4222 27.2451 22.3833 27.3467 22.3192C27.4684 22.2521 27.5598 22.1424 27.6023 22.0121L30.9496 11.0517H27.1818C27.122 11.0529 27.0627 11.042 27.0074 11.0198C26.9521 10.9975 26.902 10.9644 26.8603 10.9224C26.7921 10.8491 26.7439 10.7601 26.7201 10.6637V10.6476Z" fill="white"/>
</g>
<defs>
<clipPath id="clip0_211_2052">
<rect width="38.2838" height="20.8821" fill="white" transform="translate(0 6.26645) scale(1.01762)"/>
</clipPath>
</defs>
</svg>
