<svg width="37" height="34" viewBox="0 0 37 34" fill="none" xmlns="http://www.w3.org/2000/svg">
<rect width="34" height="34" rx="5.56856" fill="#F5F7FA"/>
<g clip-path="url(#clip0_211_2541)">
<path d="M8.74305 9.80814C7.30462 9.80814 5.92511 10.3795 4.908 11.3967L1.58854 14.7161C0.571413 15.7333 0 17.1128 0 18.5512C0 21.5466 2.42823 23.9748 5.42361 23.9748C6.86205 23.9748 8.24155 23.4034 9.25867 22.3862L11.5548 20.0902C11.5548 20.0901 11.5548 20.0902 11.5548 20.0902L18.2448 13.4001C18.7306 12.9144 19.3894 12.6415 20.0764 12.6415C21.2265 12.6415 22.2016 13.3911 22.5397 14.4284L24.651 12.317C23.6878 10.8085 21.9989 9.80814 20.0764 9.80814C18.638 9.80814 17.2584 10.3795 16.2413 11.3967L7.25522 20.3828C6.76945 20.8686 6.1106 21.1415 5.42361 21.1415C3.99304 21.1415 2.83333 19.9818 2.83333 18.5512C2.83333 17.8642 3.10624 17.2054 3.59201 16.7196L6.91144 13.4001C7.39722 12.9144 8.05606 12.6415 8.74305 12.6415C9.89324 12.6415 10.8683 13.3911 11.2064 14.4285L13.3178 12.3171C12.3546 10.8085 10.6657 9.80814 8.74305 9.80814Z" fill="#394149"/>
<path d="M18.5886 20.3828C18.1028 20.8686 17.444 21.1415 16.757 21.1415C15.607 21.1415 14.632 20.3921 14.2938 19.3549L12.1825 21.4662C13.1458 22.9746 14.8346 23.9748 16.757 23.9748C18.1954 23.9748 19.5749 23.4034 20.5921 22.3863L29.5782 13.4002C30.0639 12.9144 30.7228 12.6415 31.4098 12.6415C32.8404 12.6415 34.0001 13.8012 34.0001 15.2318C34.0001 15.9188 33.7272 16.5776 33.2414 17.0634L29.9219 20.3828C29.4362 20.8686 28.7773 21.1415 28.0903 21.1415C26.9402 21.1415 25.9652 20.3919 25.6271 19.3547L23.5158 21.466C24.479 22.9746 26.1678 23.9748 28.0903 23.9748C29.5288 23.9748 30.9083 23.4034 31.9254 22.3863L35.2448 19.0668C36.262 18.0497 36.8334 16.6702 36.8334 15.2318C36.8334 12.2364 34.4052 9.80815 31.4098 9.80815C29.9713 9.80815 28.5918 10.3796 27.5747 11.3967L18.5886 20.3828Z" fill="#394149"/>
</g>
<defs>
<clipPath id="clip0_211_2541">
<rect width="36.1956" height="13.9214" fill="white" transform="translate(0 9.80814) scale(1.01762)"/>
</clipPath>
</defs>
</svg>
