<svg width="34" height="34" viewBox="0 0 34 34" fill="none" xmlns="http://www.w3.org/2000/svg">
<path d="M6.90597 5.66628H27.0934C28.1941 5.66628 29.2526 6.07681 30.0647 6.81209L30.2237 6.96315C31.0539 7.79333 31.5205 8.91946 31.5206 10.0935V23.9059C31.5206 25.08 31.054 26.206 30.2237 27.0363C29.3935 27.8665 28.2675 28.3331 27.0934 28.3331H6.90597C5.8053 28.3331 4.74666 27.9236 3.93461 27.1883L3.7756 27.0363C2.94555 26.2061 2.47874 25.0799 2.47874 23.9059V10.0935C2.47879 8.99275 2.88914 7.93423 3.62455 7.12215L3.7756 6.96315C4.55387 6.18488 5.59226 5.7266 6.68635 5.67224L6.90597 5.66628ZM3.89585 23.9059C3.89585 24.6045 4.1387 25.2783 4.57757 25.8139L4.77732 26.0345C5.34183 26.5991 6.10764 26.917 6.90597 26.917H27.0934C27.8918 26.917 28.6575 26.5991 29.222 26.0345C29.7866 25.47 30.1045 24.7043 30.1045 23.9059V13.4584H3.89585V23.9059ZM22.3124 20.542H25.5004C25.641 20.5421 25.7775 20.5834 25.8929 20.6602L26.0012 20.7487C26.134 20.8814 26.2078 21.0618 26.2079 21.2496C26.2079 21.4372 26.1338 21.6176 26.0012 21.7504C25.8685 21.8832 25.6881 21.958 25.5004 21.9581H22.3124C22.1245 21.9581 21.9443 21.8832 21.8115 21.7504C21.6788 21.6176 21.6038 21.4373 21.6038 21.2496C21.6039 21.1088 21.6461 20.9724 21.7231 20.857L21.8115 20.7487C21.9443 20.616 22.1246 20.542 22.3124 20.542ZM6.90597 7.08339C6.10764 7.08345 5.34183 7.40036 4.77732 7.96486C4.21281 8.52937 3.89591 9.29519 3.89585 10.0935V12.0413H30.1045V10.0935C30.1044 9.39497 29.8617 8.72112 29.4228 8.18548L29.222 7.96486C28.6575 7.40047 27.8917 7.08339 27.0934 7.08339H6.90597Z" fill="#4CAF4F" stroke="#4CAF4F" stroke-width="0.696069"/>
</svg>
