<svg width="31" height="21" viewBox="0 0 31 21" fill="none" xmlns="http://www.w3.org/2000/svg">
<path d="M16.438 11.4922L11.7209 19.571L7.00388 11.4922H16.438ZM17.7016 10.7702H5.7351L11.7209 21L17.7016 10.7702Z" fill="white"/>
<path d="M24.6392 1.44408L29.3562 9.52285H19.9222L24.6392 1.44408ZM24.6392 0L18.6534 10.2297H30.625L24.6392 0Z" fill="white"/>
<path d="M0 0L5.01891 9.04823L10.5034 0.227203L0 0Z" fill="#4CAF4F"/>
<path d="M11.7211 0.792552L16.9856 9.7903H6.44642L11.7211 0.792552Z" fill="#4CAF4F"/>
<path d="M18.3414 11.7548L23.611 21H12.8211L18.1776 11.7548H18.3414Z" fill="#4CAF4F"/>
<path d="M19.4821 11.1943L24.6391 20.298L29.8678 11.1943H19.4821Z" fill="#4CAF4F"/>
</svg>
