<svg width="23" height="23" viewBox="0 0 23 23" fill="none" xmlns="http://www.w3.org/2000/svg">
<path opacity="0.1" fill-rule="evenodd" clip-rule="evenodd" d="M0 11.5C0 5.14872 5.14872 0 11.5 0C17.8513 0 23 5.14872 23 11.5C23 17.8513 17.8513 23 11.5 23C5.14872 23 0 17.8513 0 11.5Z" fill="white"/>
<path fill-rule="evenodd" clip-rule="evenodd" d="M11.1556 9.34732L11.1797 9.74525L10.7775 9.69652C9.31348 9.50974 8.03448 8.87631 6.94854 7.81247L6.41764 7.28461L6.28089 7.67441C5.9913 8.54335 6.17632 9.46102 6.77962 10.0782C7.10138 10.4193 7.02898 10.468 6.47395 10.265C6.28089 10.2 6.11196 10.1513 6.09588 10.1757C6.03957 10.2325 6.23262 10.9715 6.38546 11.2639C6.59461 11.6699 7.02094 12.0678 7.48749 12.3033L7.88165 12.4901L7.41509 12.4982C6.96463 12.4982 6.94854 12.5064 6.99681 12.6769C7.15769 13.2048 7.79316 13.7651 8.50104 14.0087L8.99976 14.1793L8.56539 14.4392C7.92187 14.8127 7.16573 15.0239 6.40959 15.0401C6.04761 15.0482 5.74998 15.0807 5.74998 15.1051C5.74998 15.1863 6.73135 15.641 7.30248 15.8197C9.01585 16.3476 11.051 16.1202 12.5793 15.2188C13.6653 14.5772 14.7512 13.3022 15.258 12.0678C15.5315 11.41 15.805 10.2081 15.805 9.63156C15.805 9.25799 15.8291 9.20927 16.2796 8.76262C16.545 8.50275 16.7944 8.21851 16.8427 8.13731C16.9231 7.98301 16.9151 7.98301 16.5048 8.12106C15.8211 8.36469 15.7246 8.33221 16.0624 7.96677C16.3118 7.7069 16.6094 7.23588 16.6094 7.09783C16.6094 7.07346 16.4887 7.11407 16.352 7.18716C16.2072 7.26837 15.8854 7.39018 15.6441 7.46327L15.2097 7.60132L14.8156 7.33333C14.5984 7.18716 14.2927 7.02474 14.1318 6.97601C13.7216 6.86232 13.0942 6.87856 12.7241 7.0085C11.7186 7.37394 11.0832 8.31597 11.1556 9.34732Z" fill="white"/>
</svg>
