<svg width="34" height="34" viewBox="0 0 34 34" fill="none" xmlns="http://www.w3.org/2000/svg">
<g clip-path="url(#clip0_211_2072)">
<path d="M30.0599 8.28084C30.0599 8.61092 30.3308 8.87849 30.6649 8.87849H31.27C31.6041 8.87849 31.875 8.61092 31.875 8.28084C31.875 7.95077 31.6041 7.68319 31.27 7.68319H30.6649C30.3308 7.68319 30.0599 7.95077 30.0599 8.28084Z" fill="#212326"/>
<path d="M12.5139 26.8082H15.4531L14.5974 25.9629C14.3705 25.7388 14.0627 25.6128 13.7418 25.6128H12.5139C7.83577 25.6128 4.04342 21.8667 4.04342 17.2457C4.04342 12.6246 7.83577 8.8785 12.5139 8.8785H22.1944C26.8726 8.8785 30.6649 12.6246 30.6649 17.2457C30.6649 21.8667 26.8726 25.6128 22.1944 25.6128H18.5731C18.0917 25.6128 17.6301 25.4239 17.2896 25.0877L16.2872 24.0975C15.7199 23.5371 14.9504 23.2222 14.1481 23.2222H12.5139C9.17237 23.2222 6.46356 20.5465 6.46356 17.2457C6.46356 13.9449 9.17237 11.2691 12.5139 11.2691H22.1944C25.536 11.2691 28.2448 13.9449 28.2448 17.2457C28.2448 20.5465 25.536 23.2222 22.1944 23.2222H19.8692C19.3878 23.2222 18.9261 23.0333 18.5857 22.6971L17.5833 21.7069C17.0159 21.1465 16.2465 20.8316 15.4441 20.8316H12.5139C10.509 20.8316 8.88369 19.2261 8.88369 17.2457C8.88369 15.2652 10.509 13.6597 12.5139 13.6597H22.1944C24.1993 13.6597 25.8246 15.2652 25.8246 17.2457C25.8246 19.202 24.2387 20.7924 22.2676 20.8309L22.2672 20.8316H21.3818C20.9004 20.8316 20.4387 20.6427 20.0983 20.3065L19.0958 19.3162C18.6304 18.8564 18.0288 18.5619 17.3846 18.471L17.3542 18.441H12.5139C11.8456 18.441 11.3038 17.9058 11.3038 17.2457C11.3038 16.5855 11.8456 16.0504 12.5139 16.0504H22.1944C22.8627 16.0504 23.4045 16.5855 23.4045 17.2457C23.4045 17.9058 22.8627 18.441 22.1944 18.441H19.7743L20.63 19.2862C20.8569 19.5104 21.1647 19.6363 21.4856 19.6363H22.1944C23.531 19.6363 24.6146 18.566 24.6146 17.2457C24.6146 15.9254 23.531 14.8551 22.1944 14.8551H12.5139C11.1773 14.8551 10.0938 15.9254 10.0938 17.2457C10.0938 18.566 11.1773 19.6363 12.5139 19.6363H16.9567C17.4381 19.6363 17.8998 19.8252 18.2402 20.1614L19.2427 21.1517C19.81 21.7121 20.5795 22.0269 21.3818 22.0269H22.497V22.0177C25.0292 21.8635 27.0347 19.7859 27.0347 17.2457C27.0347 14.6051 24.8676 12.4644 22.1944 12.4644H12.5139C9.84071 12.4644 7.67363 14.6051 7.67363 17.2457C7.67363 19.8863 9.84071 22.0269 12.5139 22.0269H15.4441C15.9256 22.0269 16.3872 22.2158 16.7276 22.552L17.7301 23.5423C18.2974 24.1027 19.0669 24.4175 19.8692 24.4175H22.1944C26.2043 24.4175 29.4548 21.2066 29.4548 17.2457C29.4548 13.2847 26.2043 10.0738 22.1944 10.0738H12.5139C8.50407 10.0738 5.25349 13.2847 5.25349 17.2457C5.25349 21.2066 8.50407 24.4175 12.5139 24.4175H14.1481C14.6295 24.4175 15.0911 24.6064 15.4316 24.9427L16.434 25.9329C17.0014 26.4933 17.7708 26.8082 18.5731 26.8082H22.1944C27.5409 26.8082 31.875 22.5269 31.875 17.2457C31.875 11.9645 27.5409 7.68319 22.1944 7.68319L12.5139 7.68319C7.16748 7.68319 2.83335 11.9645 2.83335 17.2457C2.83335 22.5269 7.16748 26.8082 12.5139 26.8082Z" fill="#212326"/>
</g>
<defs>
<clipPath id="clip0_211_2072">
<rect width="28.5388" height="18.7939" fill="white" transform="translate(2.83335 7.68319) scale(1.01762)"/>
</clipPath>
</defs>
</svg>
