<svg width="23" height="23" viewBox="0 0 23 23" fill="none" xmlns="http://www.w3.org/2000/svg">
<path opacity="0.1" fill-rule="evenodd" clip-rule="evenodd" d="M0 11.5C0 5.14872 5.14872 0 11.5 0C17.8513 0 23 5.14872 23 11.5C23 17.8513 17.8513 23 11.5 23C5.14872 23 0 17.8513 0 11.5Z" fill="white"/>
<path fill-rule="evenodd" clip-rule="evenodd" d="M17.6333 11.4914C17.6333 11.9062 17.5911 12.3204 17.5082 12.7242C17.4273 13.1184 17.3075 13.5053 17.1506 13.8753C16.9972 14.2387 16.8071 14.5888 16.5848 14.9154C16.3659 15.2399 16.1137 15.5444 15.8367 15.8219C15.5591 16.0982 15.2536 16.3497 14.9292 16.5695C14.6016 16.7902 14.2509 16.9801 13.8873 17.1342C13.5168 17.2903 13.129 17.4099 12.7351 17.4906C12.3308 17.5738 11.9151 17.6162 11.4997 17.6162C11.084 17.6162 10.6683 17.5738 10.2646 17.4906C9.87019 17.4099 9.48234 17.2903 9.11216 17.1342C8.74859 16.9801 8.39756 16.7902 8.06992 16.5695C7.74557 16.3497 7.44009 16.0982 7.16305 15.8219C6.88573 15.5444 6.63354 15.2399 6.41432 14.9154C6.19329 14.5888 6.0028 14.2386 5.84887 13.8753C5.69191 13.5053 5.57183 13.1183 5.49067 12.7242C5.40861 12.3204 5.36667 11.9062 5.36667 11.4914C5.36667 11.0763 5.40859 10.6612 5.49069 10.2584C5.57186 9.86421 5.69194 9.47663 5.84889 9.1073C6.00282 8.74364 6.19331 8.39315 6.41434 8.06656C6.63357 7.74179 6.88575 7.43792 7.16308 7.16009C7.44011 6.88374 7.7456 6.63285 8.06995 6.41334C8.39759 6.19172 8.74861 6.00184 9.11219 5.84751C9.48237 5.69107 9.87019 5.57116 10.2646 5.49102C10.6684 5.40849 11.0841 5.36661 11.4998 5.36661C11.9151 5.36661 12.3308 5.40849 12.7351 5.49102C13.129 5.57119 13.5168 5.69109 13.8873 5.84751C14.2509 6.00182 14.6016 6.19172 14.9292 6.41334C15.2536 6.63285 15.5591 6.88374 15.8367 7.16009C16.1138 7.43792 16.3659 7.74179 16.5849 8.06656C16.8071 8.39315 16.9972 8.74367 17.1506 9.1073C17.3075 9.47663 17.4273 9.86421 17.5082 10.2584C17.5911 10.6612 17.6333 11.0763 17.6333 11.4914ZM9.26487 6.76054C7.80422 7.4493 6.71407 8.79328 6.37413 10.413C6.51222 10.4142 8.69494 10.4417 11.2098 9.77449C10.3032 8.16613 9.33466 6.85357 9.26487 6.76054ZM11.6437 10.5799C8.94681 11.3861 6.35886 11.3281 6.26603 11.3246C6.26452 11.3808 6.26183 11.4352 6.26183 11.4914C6.26183 12.8351 6.76947 14.0601 7.60386 14.9863C7.60206 14.9836 9.03546 12.4442 11.8621 11.5315C11.9304 11.5088 11.9999 11.4884 12.0687 11.4687C11.9373 11.1715 11.7938 10.8736 11.6437 10.5799ZM14.9589 7.56593C14.0367 6.75395 12.8259 6.26143 11.4997 6.26143C11.0741 6.26143 10.6611 6.31287 10.2655 6.40797C10.3439 6.51325 11.3278 7.81655 12.2236 9.45898C14.2 8.71912 14.946 7.58506 14.9589 7.56593ZM12.4258 12.3354C12.4141 12.3392 12.4024 12.3426 12.391 12.3468C9.3006 13.4226 8.29138 15.5906 8.28046 15.6143C9.16968 16.3048 10.285 16.7214 11.4997 16.7214C12.2251 16.7214 12.916 16.574 13.5447 16.3069C13.4671 15.85 13.1628 14.2482 12.4258 12.3354ZM14.4267 15.829C15.6028 15.0365 16.4381 13.7781 16.6711 12.3204C16.5632 12.2857 15.0978 11.8225 13.4072 12.0931C14.0942 13.9784 14.3734 15.5138 14.4267 15.829ZM12.6267 10.2384C12.7483 10.4878 12.866 10.7416 12.9747 10.9968C13.0134 11.0883 13.0511 11.178 13.088 11.2677C14.8873 11.0416 16.66 11.422 16.7358 11.4376C16.7238 10.1977 16.2797 9.05973 15.5447 8.16884C15.5348 8.18286 14.6948 9.39497 12.6267 10.2384Z" fill="white"/>
</svg>
