<svg width="34" height="34" viewBox="0 0 34 34" fill="none" xmlns="http://www.w3.org/2000/svg">
<g clip-path="url(#clip0_211_2046)">
<path fill-rule="evenodd" clip-rule="evenodd" d="M9.91668 2.83335C13.8287 2.83335 17 6.00466 17 9.91668V2.83335H24.0833C27.9953 2.83335 31.1667 6.00466 31.1667 9.91668C31.1667 13.8287 27.9953 17 24.0833 17C27.9953 17 31.1667 20.1713 31.1667 24.0833C31.1667 26.0258 30.3847 27.7856 29.1185 29.0653L29.092 29.092L29.0685 29.1154C27.7885 30.3834 26.0274 31.1667 24.0833 31.1667C22.1525 31.1667 20.4021 30.3941 19.1243 29.1412C19.1077 29.1249 19.0911 29.1084 19.0746 29.092C19.0591 29.0765 19.0437 29.0609 19.0283 29.0453C17.7738 27.7673 17 26.0157 17 24.0833C17 27.9953 13.8287 31.1667 9.91668 31.1667C6.00466 31.1667 2.83335 27.9953 2.83335 24.0833V17H9.91668C6.00466 17 2.83335 13.8287 2.83335 9.91668C2.83335 6.00466 6.00466 2.83335 9.91668 2.83335ZM15.5833 9.91668C15.5833 13.0463 13.0463 15.5833 9.91668 15.5833V4.25002C13.0463 4.25002 15.5833 6.78707 15.5833 9.91668ZM29.75 24.0833C29.75 20.9537 27.213 18.4167 24.0833 18.4167C20.9537 18.4167 18.4167 20.9537 18.4167 24.0833H29.75ZM4.25002 18.4167V24.0833C4.25002 27.213 6.78707 29.75 9.91668 29.75C13.0463 29.75 15.5833 27.213 15.5833 24.0833V18.4167H4.25002ZM18.4167 15.5833V4.25002H24.0833C27.213 4.25002 29.75 6.78707 29.75 9.91668C29.75 13.0463 27.213 15.5833 24.0833 15.5833H18.4167Z" fill="#263238"/>
</g>
<defs>
<clipPath id="clip0_211_2046">
<rect width="27.8428" height="27.8428" fill="white" transform="translate(2.83335 2.83335) scale(1.01762)"/>
</clipPath>
</defs>
</svg>
