<svg width="34" height="34" viewBox="0 0 34 34" fill="none" xmlns="http://www.w3.org/2000/svg">
<g clip-path="url(#clip0_211_2332)">
<path d="M11.688 6.18757C13.2543 6.18767 14.7851 6.63964 16.0983 7.48543L16.3577 7.65934C17.641 8.55733 18.6366 9.80509 19.2277 11.2508L19.34 11.543C19.8767 13.0147 19.9769 14.6076 19.6321 16.1312L19.5576 16.4343C19.1267 18.0486 18.2096 19.4918 16.9311 20.5674L16.5008 20.9291L17.0136 21.1607C19.1195 22.1137 20.9315 23.6139 22.2616 25.5044L22.2666 25.5114L22.2726 25.5183C22.35 25.6175 22.4113 25.728 22.4554 25.8453L22.4942 25.9655C22.537 26.1279 22.5457 26.2974 22.521 26.4634C22.5025 26.5878 22.4653 26.7084 22.4107 26.8212L22.3501 26.9315C22.284 27.0388 22.2024 27.1354 22.1076 27.2177L22.0092 27.2952C21.872 27.3918 21.7162 27.4592 21.5521 27.494C21.4289 27.52 21.3023 27.5277 21.1774 27.5158L21.0532 27.4969C20.8885 27.4641 20.7316 27.3982 20.5931 27.3032H20.5941C20.4557 27.2081 20.3371 27.0863 20.2473 26.9444L20.2433 26.9374L20.2383 26.9305L20.0535 26.6761C19.1758 25.5026 18.0614 24.5266 16.782 23.812L16.5057 23.663C15.0176 22.8895 13.3651 22.4854 11.688 22.4854C10.1155 22.4854 8.56443 22.8411 7.15041 23.5229L6.86917 23.663C5.47382 24.3882 4.26171 25.419 3.32142 26.6761L3.13658 26.9305L3.13559 26.9315C3.05058 27.0535 2.94457 27.159 2.82255 27.2425L2.69535 27.3181C2.56349 27.3867 2.42078 27.4308 2.27399 27.4482L2.12592 27.4572H2.12393C1.93299 27.4578 1.7455 27.4128 1.57636 27.328L1.41438 27.2306L1.41239 27.2296L1.316 27.1541C1.10079 26.9678 0.955694 26.7116 0.906565 26.4286C0.857464 26.1457 0.907851 25.8558 1.04768 25.6078L1.11327 25.5044C2.44337 23.6139 4.25539 22.1137 6.36136 21.1607L6.87414 20.9291L6.44384 20.5674C5.24523 19.5591 4.36426 18.2279 3.90377 16.7354L3.81731 16.4343C3.41343 14.9211 3.45522 13.3259 3.93358 11.8391L4.03495 11.543C4.57162 10.0714 5.52034 8.78816 6.76483 7.84418L7.01724 7.65934C8.38617 6.70148 10.0172 6.18757 11.688 6.18757ZM22.5111 6.19751H22.5131C24.0802 6.19303 25.6131 6.64149 26.9284 7.48543L27.1887 7.66034C28.4741 8.5569 29.4709 9.80443 30.0627 11.2508L30.176 11.543C30.7132 13.0153 30.8127 14.6092 30.4662 16.1332L30.3917 16.4363C29.9587 18.051 29.0381 19.4933 27.7562 20.5664L27.3239 20.9281L27.8377 21.1607C29.8122 22.0542 31.5285 23.4284 32.8314 25.1546L33.0858 25.5044L33.0878 25.5064C33.1587 25.6057 33.2141 25.7151 33.2527 25.8304L33.2855 25.9467C33.3127 26.0656 33.3222 26.1882 33.3133 26.3094L33.2984 26.4296C33.2776 26.5498 33.2391 26.6661 33.1841 26.7745L33.1235 26.8798C33.058 26.9825 32.9774 27.0744 32.885 27.1531L32.7886 27.2276L32.7847 27.2306C32.5778 27.3785 32.3294 27.457 32.0751 27.4562C31.8766 27.4549 31.6808 27.4067 31.5047 27.3151C31.3726 27.2463 31.2543 27.1546 31.1549 27.0448L31.0615 26.9285C30.0957 25.5587 28.8153 24.4404 27.3279 23.6679C25.9331 22.9437 24.3943 22.5431 22.8261 22.4943L22.5121 22.4893L22.3888 22.4834C22.1458 22.4592 21.915 22.3639 21.726 22.2091L21.6356 22.1266C21.4031 21.8942 21.2719 21.5788 21.2719 21.2501C21.2719 20.9623 21.3722 20.6847 21.5531 20.464L21.6356 20.3736C21.868 20.1412 22.1834 20.0109 22.5121 20.0109C23.921 20.0108 25.2758 19.4854 26.3152 18.5441L26.5189 18.3503C27.5814 17.2876 28.1785 15.8461 28.1785 14.3434C28.1785 12.9346 27.6538 11.5797 26.7127 10.5403L26.5189 10.3366C25.5226 9.34018 24.193 8.75332 22.7923 8.68392L22.5121 8.67696C22.1237 8.67625 21.7366 8.71623 21.3573 8.79621L20.9797 8.88963L20.8565 8.92043C20.7359 8.94369 20.6123 8.94847 20.4898 8.93534C20.367 8.92219 20.2471 8.89131 20.134 8.84292L20.0237 8.78926C19.9157 8.72978 19.817 8.65484 19.7315 8.56665L19.651 8.47423C19.5742 8.37751 19.512 8.26979 19.4672 8.15523L19.4284 8.03896C19.395 7.92014 19.3798 7.7972 19.3827 7.67425L19.3916 7.55202C19.4067 7.4296 19.44 7.31045 19.49 7.19823L19.5457 7.08892C19.6068 6.98185 19.6828 6.88388 19.7723 6.79973L19.8667 6.72023C19.9644 6.64516 20.0726 6.58535 20.1877 6.54235L20.3049 6.50458L20.3109 6.50359C20.9369 6.32538 21.582 6.22413 22.2318 6.20248L22.5111 6.19751ZM12.793 8.78628C11.7625 8.5813 10.6967 8.66683 9.71433 9.03174L9.51856 9.10826C8.54795 9.51035 7.70978 10.1741 7.09575 11.0232L6.97551 11.1952C6.35291 12.127 6.02056 13.2228 6.02049 14.3434C6.02049 15.7524 6.54504 17.1081 7.4863 18.1476L7.68009 18.3503C8.74279 19.413 10.1851 20.0109 11.688 20.0109C12.7385 20.0108 13.7671 19.7186 14.6593 19.1692L14.8352 19.0559C15.7088 18.4721 16.402 17.6573 16.8387 16.7046L16.9231 16.5118C17.325 15.5413 17.4481 14.4795 17.2819 13.4451L17.2451 13.2384C17.0401 12.2077 16.5531 11.2556 15.8399 10.4876L15.6948 10.3366C14.9518 9.59354 14.0174 9.07333 12.9977 8.83099L12.793 8.78628Z" fill="#4CAF4F" stroke="#4CAF4F" stroke-width="0.696069"/>
</g>
<defs>
<clipPath id="clip0_211_2332">
<rect width="33.4113" height="33.4113" fill="white" transform="scale(1.01762)"/>
</clipPath>
</defs>
</svg>
