<svg width="13" height="13" viewBox="0 0 13 13" fill="none" xmlns="http://www.w3.org/2000/svg">
<g clip-path="url(#clip0_0_90)">
<path fill-rule="evenodd" clip-rule="evenodd" d="M12.2996 0.700247C12.4467 0.847384 12.4966 1.0658 12.4278 1.2622L8.63618 12.0955C8.56281 12.3051 8.36891 12.4487 8.147 12.4578C7.92509 12.4668 7.72014 12.3395 7.62994 12.1365L5.5479 7.45194L0.86329 5.36989C0.660339 5.27969 0.533014 5.07474 0.542067 4.85283C0.55112 4.63093 0.694718 4.43703 0.904342 4.36366L11.7376 0.572007C11.934 0.503267 12.1525 0.553111 12.2996 0.700247ZM6.60433 7.16153L8.06501 10.4481L10.6212 3.14467L6.60433 7.16153ZM9.85517 2.37864L2.55177 4.93483L5.8383 6.3955L9.85517 2.37864Z" fill="white"/>
</g>
<defs>
<clipPath id="clip0_0_90">
<rect width="12.5293" height="12.5293" fill="white" transform="scale(1.03757)"/>
</clipPath>
</defs>
</svg>
