<svg width="34" height="34" viewBox="0 0 34 34" fill="none" xmlns="http://www.w3.org/2000/svg">
<rect width="34" height="34" rx="5.56856" fill="#F5F7FA"/>
<g clip-path="url(#clip0_211_2521)">
<path d="M31.1643 9.49977C31.1643 9.52372 31.1643 9.55366 31.158 9.57162C31.1268 9.80515 31.1268 10.0387 31.1455 10.2782C31.158 10.3381 31.1705 10.398 31.2204 10.4459C31.3015 10.5357 31.4263 10.5177 31.4762 10.4099C31.5012 10.356 31.5012 10.3021 31.4887 10.2483C31.4263 10.0207 31.4138 9.7812 31.4076 9.54767C31.4076 9.5357 31.4076 9.51773 31.4076 9.49977C31.4762 9.49378 31.5386 9.48779 31.5947 9.48779C31.6384 9.48181 31.6759 9.47582 31.7071 9.45785C31.8006 9.40995 31.8006 9.30816 31.7008 9.26026C31.6634 9.24229 31.6135 9.2363 31.5698 9.2363C31.4138 9.24229 31.2579 9.24229 31.1019 9.24229C31.0457 9.24229 30.9896 9.24828 30.9334 9.25427C30.9022 9.26026 30.8648 9.26026 30.8399 9.27822C30.7962 9.29618 30.7712 9.32612 30.7712 9.36803C30.7775 9.40995 30.7962 9.4339 30.8399 9.45187C30.8648 9.46983 30.896 9.47582 30.9272 9.47582C31.002 9.48181 31.0832 9.49378 31.1643 9.49977ZM32.8799 9.77521C32.8799 9.7812 32.8862 9.78719 32.8862 9.78719C32.9111 9.94886 32.9361 10.1045 32.9548 10.2602C32.9611 10.3141 32.9673 10.362 33.0047 10.4039C33.0858 10.5057 33.2106 10.4938 33.2667 10.386C33.2917 10.3321 33.2979 10.2782 33.2855 10.2183C33.248 10.0387 33.2293 9.85904 33.1919 9.68539C33.1669 9.57761 33.1357 9.47582 33.1045 9.38001C33.0858 9.32013 33.0422 9.27822 32.9673 9.27223C32.8924 9.26026 32.8363 9.29618 32.8051 9.35007C32.7676 9.39797 32.7364 9.44588 32.7115 9.49977C32.6678 9.59557 32.6304 9.69138 32.5805 9.7812C32.5742 9.80515 32.568 9.82312 32.5555 9.84108C32.5493 9.8291 32.5431 9.82312 32.5431 9.82312C32.4619 9.67342 32.3871 9.52372 32.306 9.38001C32.2935 9.36803 32.2872 9.35606 32.281 9.34408C32.2436 9.29019 32.1999 9.26026 32.1313 9.26026C32.0689 9.26624 32.019 9.30217 31.9878 9.35606C31.9753 9.38001 31.9753 9.39797 31.9691 9.42193C31.9441 9.61354 31.9129 9.80515 31.888 9.99676C31.8755 10.1045 31.8692 10.2123 31.8692 10.3201C31.863 10.3441 31.8692 10.374 31.8817 10.398C31.8942 10.4459 31.9316 10.4758 31.9815 10.4818C32.0439 10.4878 32.0876 10.4698 32.1063 10.4219C32.125 10.386 32.1313 10.356 32.1375 10.3261C32.1625 10.2183 32.1812 10.1165 32.1999 10.0147C32.2124 9.95485 32.2186 9.90694 32.2373 9.84108C32.2498 9.86503 32.2623 9.88299 32.2748 9.90095C32.3309 9.97281 32.3871 10.0447 32.4557 10.1045C32.5243 10.1524 32.5805 10.1465 32.6366 10.0926C32.6491 10.0806 32.6553 10.0746 32.6678 10.0626C32.724 9.9788 32.7926 9.89497 32.8487 9.81114C32.8612 9.79916 32.8675 9.78719 32.8799 9.77521Z" fill="#3A3B7B"/>
<path d="M18.5048 9.61743C18.4614 9.73122 18.4532 9.81321 18.4732 9.88135C18.4953 9.97401 18.5527 10.0043 18.6306 9.98078C19.3634 9.80686 20.9703 10.3005 21.5652 10.4381C21.7055 10.467 21.8197 10.2932 21.7239 10.1373C21.5842 9.98637 19.978 9.34016 19.3652 9.30493C19.1249 9.2919 18.6955 9.23277 18.5048 9.61743Z" fill="#3A3B7B"/>
<path d="M24.7849 7.52553C24.863 7.56879 24.9066 7.61006 24.9282 7.65618C24.9603 7.71666 24.9433 7.75851 24.8894 7.77986C24.405 8.00677 23.7604 8.98362 23.5002 9.32053C23.4372 9.39803 23.2917 9.35299 23.2697 9.22554C23.2742 9.08143 23.8456 8.02133 24.1645 7.73259C24.2898 7.61986 24.4968 7.39867 24.7849 7.52553Z" fill="#3A3B7B"/>
<path d="M20.9274 7.0447C21.0212 6.97683 21.1187 6.95304 21.1685 6.99715C21.8994 7.59704 22.2869 8.54701 22.5269 9.41669C22.5359 9.43695 22.5365 9.46602 22.5293 9.49636C22.5263 9.52228 22.5066 9.54967 22.4752 9.57086C22.4417 9.59425 22.4129 9.60138 22.3994 9.58122C22.079 9.16307 20.2496 7.53612 20.9274 7.0447Z" fill="#3A3B7B"/>
<path d="M5.45086 17.4452C5.62602 17.32 5.81645 17.2158 6.01796 17.135C6.22879 17.0771 6.45351 17.0867 6.65816 17.1623C6.86276 17.238 7.03621 17.3755 7.15216 17.5541C7.25589 17.7322 7.29645 17.9379 7.26782 18.1402C7.23919 18.3424 7.14289 18.5302 6.99336 18.6753C6.87746 18.793 6.74586 18.8954 6.60209 18.9801C5.96127 19.3775 5.31474 19.753 4.66825 20.1504C4.53597 20.2498 4.39563 20.339 4.24859 20.4171C4.02493 20.5241 3.76933 20.5528 3.52597 20.4981C3.28262 20.4435 3.06682 20.3089 2.9159 20.1177C2.80307 19.9823 2.70785 19.8343 2.63234 19.6768C2.01987 18.4413 1.38472 17.2112 0.794929 15.9538C0.522718 15.4096 0.301548 14.7836 0.0860488 14.1795C-0.00718626 14.0039 -0.0253929 13.8004 0.0353055 13.6122C0.0960039 13.4239 0.230819 13.2659 0.411072 13.1716C0.591327 13.0773 0.802796 13.0542 1.00051 13.1072C1.19822 13.1603 1.36659 13.2852 1.46978 13.4555C1.78698 13.8601 2.06776 14.2899 2.3091 14.7401C2.92157 15.8287 3.50569 16.9172 4.09547 17.9732C4.12982 18.0315 4.16768 18.0878 4.20889 18.1419C4.65281 17.9628 5.07034 17.7285 5.45086 17.4452Z" fill="#3A3B7B"/>
<path d="M11.7834 17.0655C10.3827 18.6384 8.03484 18.2411 6.85527 16.2163C6.01594 14.7794 5.8685 12.4063 7.6946 10.9095C8.08454 10.5961 8.55081 10.3826 9.04995 10.289C9.66195 10.2048 10.286 10.3084 10.833 10.5851C11.3799 10.8617 11.8217 11.2972 12.0953 11.8293C13.0934 13.5711 12.9516 15.7918 11.7834 17.0655ZM11.2163 13.3969C11.0675 12.9689 10.7689 12.6035 10.3713 12.3627C10.1463 12.2088 9.87287 12.134 9.59712 12.1508C9.32133 12.1677 9.06003 12.2752 8.85715 12.4553C8.04621 13.1465 7.87604 14.7849 8.46583 15.7592C8.54102 15.918 8.6514 16.0592 8.78937 16.1728C8.92734 16.2865 9.08952 16.3698 9.26454 16.417C9.43956 16.4642 9.62319 16.474 9.80263 16.446C9.98207 16.4179 10.1529 16.3525 10.3033 16.2544C10.7429 15.9273 11.0654 15.4769 11.2259 14.9658C11.3866 14.4546 11.3772 13.9082 11.1993 13.4024L11.2163 13.3969Z" fill="#3A3B7B"/>
<path d="M17.4998 14.0828C17.3564 14.1124 17.2083 14.1141 17.0641 14.0879C16.92 14.0617 16.7828 14.0082 16.6605 13.9304C16.5536 13.8716 16.4615 13.7909 16.3909 13.694C16.3204 13.597 16.2731 13.4863 16.2525 13.3696C16.2319 13.2531 16.2385 13.1335 16.2717 13.0197C16.305 12.9058 16.3642 12.8004 16.4451 12.7111C16.5858 12.5317 16.7857 12.4032 17.0121 12.3465C17.6035 12.1818 18.2122 12.0813 18.8269 12.0471C18.9619 12.032 19.0988 12.043 19.2293 12.0794C19.3599 12.1158 19.4816 12.1768 19.5873 12.259C19.6929 12.3411 19.7804 12.4427 19.8446 12.5577C19.9088 12.6728 19.9484 12.7989 19.9611 12.9289C20.1383 13.5671 20.1577 14.2362 20.0178 14.8829C19.5074 16.973 17.7494 17.6914 15.7758 17.0219C15.2219 16.8429 14.7361 16.5094 14.3808 16.064C13.9068 15.5276 13.5707 14.8919 13.3997 14.208C13.2611 13.599 13.2763 12.967 13.444 12.3648C13.6117 11.7626 13.9271 11.2076 14.3637 10.7463C14.7782 10.2448 15.3161 9.8501 15.929 9.59779C16.3163 9.39291 16.7695 9.33465 17.1993 9.4345C17.2968 9.4604 17.3853 9.51087 17.4556 9.58067C17.526 9.65047 17.5756 9.73706 17.5993 9.83146C17.6231 9.92586 17.62 10.0246 17.5906 10.1175C17.5611 10.2104 17.5063 10.2941 17.4318 10.3598C17.2902 10.4828 17.1363 10.5922 16.9724 10.6864C16.4683 10.9945 16.0295 11.3916 15.6794 11.8566C15.45 12.1575 15.2919 12.503 15.2165 12.8688C15.141 13.2346 15.15 13.6118 15.2428 13.9739C15.3714 14.4677 15.6568 14.9109 16.0594 15.2421C17.307 16.3307 18.9289 15.2802 18.6454 13.7943C18.2314 13.8923 17.8685 13.9957 17.4998 14.0828Z" fill="#3A3B7B"/>
<path d="M25.1218 17.1526C23.2787 18.2412 21.1804 17.1526 20.721 14.8666C20.3865 13.2337 21.0216 10.9476 23.2447 10.0768C23.7177 9.89547 24.2307 9.83181 24.7362 9.89171C25.3434 9.99841 25.9006 10.2854 26.3289 10.7121C26.7572 11.1388 27.0352 11.6838 27.1236 12.2703C27.4979 14.2134 26.6473 16.2872 25.1218 17.1526ZM25.7626 13.4895C25.7621 13.0373 25.5954 12.5998 25.2919 12.2539C25.1297 12.04 24.8952 11.8868 24.6284 11.8202C24.3615 11.7537 24.079 11.7781 23.8288 11.8893C22.8307 12.3029 22.1275 13.8052 22.3827 14.9101C22.4022 15.0835 22.4609 15.2507 22.5547 15.4001C22.6485 15.5494 22.7752 15.6773 22.926 15.7748C23.0766 15.8722 23.2477 15.9369 23.4271 15.9643C23.6066 15.9917 23.7902 15.9811 23.9649 15.9334C24.4925 15.7565 24.9493 15.4259 25.2715 14.9878C25.5938 14.5496 25.7655 14.0258 25.7626 13.4895Z" fill="#3A3B7B"/>
<path d="M28.9875 17.6098C28.9597 17.809 28.8506 17.9894 28.6841 18.1114C28.5177 18.2333 28.3076 18.2869 28.1 18.2602C27.8925 18.2335 27.7045 18.1287 27.5774 17.969C27.4503 17.8093 27.3945 17.6076 27.4223 17.4084C27.4502 17.2092 27.5593 17.0287 27.7257 16.9067C27.8922 16.7847 28.1023 16.7312 28.3099 16.7579C28.5174 16.7846 28.7054 16.8894 28.8325 17.0491C28.9596 17.2089 29.0154 17.4106 28.9875 17.6098ZM28.4941 10.2672C28.602 10.1091 28.7602 9.98873 28.9452 9.92399C29.1302 9.85925 29.332 9.85364 29.5206 9.90799C29.7123 9.95403 29.8817 10.0619 30.0004 10.2135C30.1192 10.3651 30.18 10.5512 30.1728 10.7408C30.1478 11.0448 30.1004 11.3467 30.031 11.6443C29.8439 12.6512 29.6624 13.6582 29.4639 14.6542C29.3732 15.0516 29.2541 15.4326 29.1236 15.8353C29.0783 15.9612 29.0025 16.075 28.9025 16.1674C28.8403 16.2368 28.761 16.2901 28.6716 16.3223C28.5823 16.3545 28.486 16.3645 28.3916 16.3515C28.2972 16.3385 28.2077 16.3028 28.1315 16.2478C28.0552 16.1928 27.9947 16.1202 27.9554 16.0367C27.888 15.8871 27.8514 15.7262 27.8477 15.5632C27.8477 14.8883 27.8477 14.2079 27.893 13.5275C27.9701 12.5566 28.1218 11.5924 28.3467 10.6428C28.3732 10.5156 28.4231 10.3939 28.4941 10.2836V10.2672Z" fill="#3A3B7B"/>
<path fill-rule="evenodd" clip-rule="evenodd" d="M3.0548 21.9836C2.98784 22.1271 2.96948 22.287 3.0022 22.441C3.02397 22.6438 3.07178 22.8434 3.14455 23.0351C3.23539 23.2699 3.33705 23.502 3.4624 23.7881C3.49123 23.8539 3.52135 23.9226 3.55287 23.9949C3.72191 24.3825 3.93401 24.8778 4.21691 25.5947C4.29699 25.7983 4.3681 26.0037 4.4397 26.2104C4.46863 26.2939 4.49766 26.3777 4.52737 26.4617C4.63389 26.7603 4.81716 27.0286 5.0601 27.2412C5.16325 27.358 5.30008 27.4432 5.45351 27.4858C5.60993 27.5292 5.7763 27.5264 5.93105 27.4779C6.08581 27.4293 6.22174 27.3371 6.32118 27.2133C6.41868 27.092 6.47666 26.9458 6.48793 26.793C6.55118 26.4955 6.52959 26.1869 6.42534 25.9C6.25988 25.4237 6.0714 24.9467 5.85405 24.4801L5.85306 24.478C5.4955 23.7481 5.13205 23.0231 4.75141 22.2979L4.74856 22.2928C4.63713 22.1039 4.49231 21.935 4.32062 21.7937C4.20916 21.6676 4.05542 21.5825 3.88563 21.5532C3.71222 21.5233 3.53338 21.5535 3.38103 21.6384C3.2369 21.7174 3.12265 21.8382 3.0548 21.9836Z" fill="#3A3B7B"/>
<path fill-rule="evenodd" clip-rule="evenodd" d="M8.51593 20.1861C7.9553 20.0468 7.3698 20.0265 6.80022 20.1267C6.35906 20.1683 5.92518 20.266 5.62389 20.4595C5.47065 20.5579 5.34676 20.6844 5.27784 20.8451C5.20855 21.0066 5.1997 21.1914 5.25649 21.3973C5.36017 21.7744 5.49481 22.1411 5.62898 22.5066L5.65071 22.5658L5.65123 22.5671C6.0552 23.6289 6.46303 24.6871 6.87456 25.7417C6.92255 25.9079 6.99041 26.0682 7.07678 26.2195L7.0784 26.2223C7.1925 26.4101 7.33884 26.5781 7.51124 26.7193C7.59746 26.7969 7.70409 26.8506 7.81971 26.8745C7.93647 26.8987 8.05789 26.8917 8.17075 26.8542C8.28365 26.8167 8.38362 26.7502 8.45981 26.6618C8.53477 26.575 8.58385 26.4703 8.60187 26.3589C8.67626 26.0563 8.65243 25.7391 8.53353 25.4498C8.49643 25.3525 8.46733 25.253 8.43665 25.1483C8.42643 25.1133 8.41606 25.0778 8.40512 25.0416C9.34713 24.6882 10.3495 24.213 10.7019 23.1075C10.8399 22.7255 10.8514 22.3118 10.7348 21.9232C10.6181 21.5341 10.3787 21.1893 10.0494 20.9362C9.60139 20.5818 9.07799 20.3258 8.51593 20.1861ZM6.96193 21.5421C6.98047 21.537 6.99917 21.5322 7.0179 21.5278C7.63118 21.4353 8.25864 21.5586 8.78474 21.8749C9.01659 22.0297 9.11157 22.2016 9.12788 22.3671C9.14472 22.5374 9.08018 22.722 8.95053 22.8995C8.70555 23.2347 8.2585 23.503 7.85467 23.553C7.56027 22.9023 7.26131 22.2252 6.96193 21.5421Z" fill="#3A3B7B"/>
<path d="M12.2536 18.9951C12.9212 18.6991 13.7482 18.648 14.3954 18.8561C14.5584 18.9017 14.6998 19.0002 14.7954 19.1349C14.8904 19.2688 14.9343 19.4301 14.9196 19.5913C14.9187 19.696 14.8919 19.799 14.8415 19.8919C14.7903 19.9865 14.716 20.0678 14.6251 20.129C14.5342 20.1902 14.4292 20.2296 14.3191 20.2436C14.2089 20.2577 14.0969 20.2462 13.9925 20.2099L13.9845 20.2071L13.977 20.2034C13.9236 20.1765 13.8668 20.1563 13.8081 20.1431L13.8044 20.1423C13.3491 20.0263 12.9197 20.2186 12.7629 20.4549C12.688 20.5675 12.6788 20.6812 12.7411 20.7847C12.8078 20.8955 12.9714 21.0198 13.3026 21.1084C13.3937 21.1324 13.487 21.1556 13.5817 21.1791C13.8436 21.2442 14.1157 21.3118 14.3789 21.4055L14.3799 21.4058C15.5939 21.8492 16.0459 22.7673 15.8912 23.6309C15.7381 24.4849 14.995 25.2622 13.8775 25.4455C13.4708 25.532 13.0476 25.5152 12.6498 25.3966C12.251 25.2777 11.8915 25.0608 11.607 24.7672L11.5996 24.7595C11.5098 24.6489 11.4494 24.519 11.4226 24.3812C11.398 24.2567 11.411 24.1282 11.46 24.0106C11.5087 23.8937 11.591 23.7925 11.6973 23.7188C11.8096 23.6352 11.945 23.5851 12.0867 23.5746C12.2279 23.5642 12.3692 23.5937 12.4931 23.6593C12.617 23.7167 12.7322 23.79 12.8356 23.8771L12.8375 23.8787C13.0204 24.0392 13.2417 24.0811 13.4539 24.0423C13.6692 24.003 13.8717 23.8807 14.0019 23.7185C14.1313 23.5573 14.1832 23.3658 14.1216 23.1799C14.0596 22.9926 13.8731 22.7828 13.4634 22.6074C13.3563 22.5638 13.2452 22.5286 13.1297 22.4943C13.0985 22.4851 13.0669 22.4759 13.0348 22.4665C12.9494 22.4417 12.8615 22.416 12.7753 22.3878C12.716 22.3684 12.6571 22.35 12.5988 22.3317C12.4394 22.2819 12.284 22.2333 12.1345 22.1682C11.809 22.0619 11.5279 21.8577 11.3328 21.5858C11.137 21.3129 11.0384 20.9865 11.0519 20.6554C11.0529 19.8485 11.5824 19.2927 12.2536 18.9951Z" fill="#3A3B7B"/>
<path d="M20.7179 18.9091C20.5885 18.8484 20.4453 18.8196 20.3014 18.8253C20.1574 18.831 20.0172 18.8709 19.8934 18.9416C19.7704 19.0119 19.6674 19.1102 19.5936 19.2279C19.5259 19.327 19.479 19.4378 19.4557 19.5542C19.4323 19.6705 19.4329 19.79 19.4573 19.906C19.4814 20.0551 19.5082 20.2002 19.5345 20.3432C19.5783 20.5798 19.6208 20.8111 19.6488 21.047L19.6499 21.053C19.7138 21.4228 19.7472 21.7969 19.7502 22.1718L19.7505 22.1771C19.7723 22.582 19.6286 22.979 19.3501 23.2838L19.3457 23.2892C19.2551 23.4007 19.134 23.4857 18.9958 23.5349C18.8577 23.5841 18.7081 23.5954 18.5636 23.5675C18.4192 23.5397 18.2857 23.4739 18.178 23.3774C18.0703 23.2809 17.9927 23.1572 17.9539 23.0208C17.8712 22.7334 17.8233 22.4377 17.8111 22.1398L17.9524 19.9799C17.9545 19.9517 17.9569 19.9228 17.9593 19.8936C17.9647 19.828 17.9702 19.7612 17.9725 19.6988C17.9758 19.6072 17.973 19.5128 17.9507 19.4236C17.9279 19.3324 17.8846 19.2456 17.8078 19.1717C17.7317 19.0985 17.6289 19.0445 17.4997 19.0078C17.2659 18.9429 17.0683 18.9449 16.9036 19.012C16.7388 19.0791 16.6259 19.2036 16.546 19.3475C16.4667 19.4902 16.4157 19.6591 16.3772 19.8283C16.3486 19.9538 16.3257 20.0856 16.3038 20.2111C16.2963 20.2543 16.2889 20.2967 16.2814 20.338L16.2812 20.3392C16.1644 21.0271 16.1297 21.7257 16.1776 22.4212C16.1865 22.797 16.2682 23.1681 16.4185 23.5153C16.588 23.9632 16.8951 24.3514 17.2992 24.6285C17.7042 24.9061 18.1875 25.0591 18.685 25.0672C19.1826 25.0753 19.671 24.938 20.0855 24.6738C20.4994 24.4098 20.8201 24.0316 21.0053 23.5891C21.2644 23.0253 21.386 22.4123 21.3609 21.7966C21.3457 21.3471 21.3202 20.8941 21.2949 20.4435C21.2824 20.2224 21.27 20.0018 21.2589 19.7826C21.2533 19.5628 21.1777 19.3498 21.0424 19.1724C20.9586 19.0602 20.8471 18.9697 20.7179 18.9091Z" fill="#3A3B7B"/>
<path d="M25.2998 22.2957C25.2867 22.3118 25.2729 22.3283 25.2584 22.3456C25.1531 21.7625 25.0555 21.1797 24.9578 20.596C24.9227 20.3866 24.8875 20.1763 24.852 19.9665L24.848 19.9432L24.8351 19.9229C24.8107 19.8849 24.8083 19.8476 24.8083 19.768V19.7588L24.8068 19.7497C24.7804 19.5855 24.7029 19.4326 24.5847 19.3111C24.4667 19.1899 24.3135 19.1056 24.145 19.069C23.9768 19.0292 23.8 19.038 23.6369 19.0943C23.4743 19.1504 23.3325 19.2514 23.2293 19.3844C23.1435 19.4865 23.0732 19.5998 23.0205 19.7208C22.9009 19.9815 22.7802 20.2428 22.6592 20.5049L22.6571 20.5094C22.3551 21.1636 22.051 21.8222 21.7557 22.486L21.7548 22.4881C21.5736 22.9185 21.424 23.372 21.2749 23.8241C21.2451 23.9144 21.2153 24.0046 21.1853 24.0945C21.1315 24.2372 21.1079 24.3887 21.116 24.5402C21.1062 24.6759 21.14 24.8112 21.213 24.9278C21.2874 25.0469 21.3988 25.1405 21.5315 25.1957C21.6722 25.2549 21.8295 25.2674 21.9785 25.2314C22.1272 25.1954 22.2592 25.113 22.3538 24.9972C22.4746 24.8546 22.5785 24.6991 22.6633 24.5343C22.9134 24.0432 23.1524 23.5462 23.3903 23.0513C23.4824 22.8599 23.5719 22.6885 23.6737 22.5018C23.6807 22.5248 23.6878 22.5473 23.6952 22.5698C23.8018 23.0205 23.9819 23.4523 24.2287 23.8492C24.2754 23.9333 24.3404 24.0068 24.4194 24.0646C24.4993 24.1232 24.5915 24.1642 24.6896 24.1851C24.7877 24.206 24.8894 24.2061 24.9876 24.1854C25.0856 24.1648 25.1781 24.1236 25.2581 24.0654L25.4163 23.9517L26.6444 22.9588L26.5718 23.403C26.4721 24.0136 26.3732 24.6191 26.2681 25.2248C26.1993 25.4932 26.1994 25.7736 26.2684 26.042C26.2982 26.193 26.3743 26.332 26.487 26.4414C26.6005 26.5516 26.746 26.6265 26.9044 26.6564C27.0629 26.6862 27.2271 26.6697 27.3756 26.6088C27.522 26.5489 27.6465 26.4488 27.7335 26.3211C27.936 26.0799 28.0621 25.788 28.0967 25.48C28.1488 25.0451 28.2077 24.6042 28.2666 24.1635C28.3345 23.6556 28.4024 23.1477 28.4597 22.6496L28.4599 22.6481C28.515 22.1028 28.5417 21.5554 28.5399 21.0075C28.5519 20.8344 28.507 20.662 28.4114 20.5146C28.3153 20.3667 28.1731 20.2517 28.0051 20.1859C27.8302 20.1096 27.6345 20.0892 27.4467 20.1278C27.2601 20.1661 27.0912 20.2605 26.9645 20.3972C26.738 20.5983 26.5255 20.8135 26.3284 21.0413L26.3271 21.0429C26.1118 21.3003 25.8981 21.5627 25.6858 21.8234C25.5566 21.9819 25.4279 22.14 25.2998 22.2957Z" fill="#3A3B7B"/>
</g>
<defs>
<clipPath id="clip0_211_2521">
<rect width="32.7153" height="20.186" fill="white" transform="translate(6.21105e-05 6.97479) scale(1.01762)"/>
</clipPath>
</defs>
</svg>
