<svg width="60" height="103" viewBox="0 0 60 103" fill="none" xmlns="http://www.w3.org/2000/svg">
<path d="M13.258 76.7433C2.12863 68.9707 -0.392593 54.5421 0.04682 41.5686C0.118855 39.4076 -0.118851 37.1169 0.911248 35.2224C1.94135 33.3278 4.34731 32.024 6.28505 32.9316C7.89142 33.688 8.59017 35.5609 9.49061 37.1097C10.6921 39.1725 12.4527 40.8532 14.5691 41.9576C15.9449 42.678 17.6522 43.1102 19.0136 42.361C20.8865 41.3309 21.1026 38.7593 21.0882 36.5982C21.0882 32.5787 21.0642 28.5639 21.0162 24.554C20.8867 22.4008 21.1057 20.2407 21.6645 18.1573C22.3344 16.1115 23.8255 14.217 25.8641 13.6407C27.9027 13.0644 30.4455 14.253 30.9066 16.3564C30.9859 17.2473 31.0076 18.1424 30.9714 19.0361C31.029 19.9365 31.4468 20.9234 32.2897 21.1972C33.1325 21.4709 34.0113 20.8442 34.6596 20.2103C36.8783 18.0492 38.391 15.2327 39.7957 12.4521C41.2004 9.67157 42.5762 6.81177 44.5932 4.44183C46.6102 2.07188 49.3979 0.19177 52.517 0.011683C55.6362 -0.168404 58.8849 1.74773 59.6629 4.77319C60.4409 7.79866 58.676 10.889 56.7815 13.3453C53.9227 16.9915 50.5528 20.2062 46.7759 22.89C46.0386 23.2925 45.4502 23.9213 45.0975 24.6836C44.6292 26.1243 45.9907 27.565 47.4098 28.0189C49.0162 28.5519 50.7594 28.3862 52.4522 28.5879C54.145 28.7896 55.9459 29.5244 56.587 31.1091C57.4658 33.3134 55.6218 35.6185 53.8137 37.1313C50.1831 40.1567 46.0606 42.5372 41.6254 44.1691C40.0406 44.7454 38.3766 45.2568 37.0944 46.3662C35.8121 47.4755 35.0486 49.4132 35.8194 50.9332C36.5901 52.4531 38.5711 52.9357 40.2351 52.626C41.8991 52.3162 43.3758 51.423 44.9606 50.8251C47.9212 49.7086 51.7391 49.9103 53.6048 52.4675C54.1828 53.3484 54.5486 54.3513 54.6736 55.3975C54.7986 56.4437 54.6793 57.5046 54.3251 58.4968C53.6042 60.4716 52.4946 62.2817 51.0619 63.8202C46.344 69.4572 40.2138 73.7403 33.2981 76.2318C26.4332 78.609 20.0725 79.2573 13.2508 76.7577" fill="#4CAF4F"/>
<path d="M56.4934 1.79095C56.4934 1.79095 56.4285 1.86298 56.2845 1.99265L55.6434 2.56172C55.0815 3.06596 54.2531 3.80072 53.2086 4.77319C50.2471 7.52287 47.4972 10.4919 44.9822 13.6551C43.3758 15.6505 41.7118 17.9124 39.9398 20.3687C38.1677 22.8251 36.338 25.476 34.5227 28.2926C32.5874 31.2627 30.8151 34.3359 29.2137 37.4987C28.3781 39.1483 27.6434 40.8699 26.887 42.6275L24.6539 47.9941C21.7104 54.7539 19.1468 61.6729 16.975 68.7186C15.2257 74.4833 14.0198 80.3992 13.3733 86.3888C12.9543 90.4309 12.8868 94.5017 13.1716 98.5554C13.2868 99.9961 13.3949 101.098 13.4957 101.847C13.539 102.208 13.5678 102.496 13.5966 102.705V103C13.5656 102.906 13.5439 102.81 13.5318 102.712C13.4957 102.503 13.4525 102.222 13.3949 101.862C13.2652 101.141 13.1284 100.003 12.9987 98.5627C12.6511 94.5014 12.6753 90.4168 13.0707 86.3599C13.6772 80.3448 14.8567 74.4014 16.5932 68.6105C18.7468 61.545 21.3034 54.6087 24.2505 47.8357L26.5413 42.4907C27.2976 40.7402 28.0396 39.0042 28.8824 37.3474C30.4949 34.1751 32.2817 31.0945 34.2346 28.1197C36.0787 25.2383 37.9372 22.6307 39.6876 20.1959C41.4381 17.7611 43.1309 15.4848 44.7301 13.4966C47.2707 10.3418 50.0576 7.39352 53.0645 4.67955C54.1306 3.72148 54.9806 3.00113 55.5569 2.5185L56.2268 1.97824C56.3089 1.90673 56.3983 1.84397 56.4934 1.79095Z" fill="#263238"/>
<path d="M28.976 37.333C28.8744 37.0362 28.8044 36.7296 28.7671 36.4182C28.6519 35.8203 28.5222 34.9774 28.371 33.8825C28.0612 31.7215 27.7443 28.7608 27.4057 25.4832C27.0671 22.2056 26.6853 19.2378 26.3684 17.0984C26.2027 16.0323 26.0586 15.175 25.9578 14.5772C25.8791 14.2711 25.838 13.9567 25.8353 13.6407C25.9594 13.9293 26.0488 14.2315 26.1019 14.5411C26.2603 15.1318 26.4404 15.9818 26.6421 17.0552C27.0527 19.2162 27.4561 22.1552 27.7947 25.44C28.1332 28.7248 28.4214 31.6062 28.6447 33.8465C28.7527 34.855 28.8464 35.7122 28.9184 36.3965C28.9744 36.7053 28.9937 37.0197 28.976 37.333Z" fill="#263238"/>
<path d="M56.6951 32.1609C56.3445 32.2372 55.9876 32.2806 55.6289 32.2905C54.9086 32.3554 53.8857 32.4418 52.6179 32.5859C50.0823 32.8596 46.5958 33.3638 42.7707 34.0842C38.9456 34.8045 35.5096 35.6185 33.0388 36.2452C31.807 36.5622 30.8129 36.8503 30.1574 37.0448C29.8074 37.1692 29.4452 37.2561 29.0769 37.3041C29.4098 37.1367 29.7569 36.9994 30.1142 36.8936C30.7913 36.6558 31.771 36.3245 32.9956 35.9715C35.4519 35.2511 38.888 34.3939 42.7275 33.6592C45.9799 33.0373 49.2617 32.5805 52.5602 32.2905C53.8353 32.1825 54.8654 32.1392 55.5857 32.1248C55.9558 32.0997 56.3274 32.1117 56.6951 32.1609Z" fill="#263238"/>
<path d="M16.9462 68.1063C16.8694 68.002 16.8065 67.8882 16.7589 67.7677L16.2835 66.7664C15.8729 65.8948 15.3182 64.6054 14.6555 63.0278C13.3157 59.8583 11.6084 55.4209 9.79315 50.4937C7.97787 45.5665 6.30666 41.1292 5.03884 37.9237C4.41934 36.3677 3.90791 35.0927 3.52613 34.1418L3.12271 33.1117C3.0668 32.9929 3.02802 32.8668 3.00748 32.7371C3.08428 32.8414 3.14722 32.9552 3.19475 33.0757L3.67019 34.077C4.07358 34.9486 4.63546 36.238 5.29818 37.8156C6.63803 40.9851 8.34526 45.4225 10.1605 50.3497C11.9758 55.2769 13.647 59.7142 14.9148 62.9198C15.5343 64.4757 16.0458 65.7507 16.4204 66.7016C16.5861 67.1122 16.7229 67.4219 16.831 67.7317C16.8869 67.8505 16.9257 67.9766 16.9462 68.1063Z" fill="#263238"/>
<path d="M53.7417 56.2421C53.6263 56.3083 53.5028 56.3592 53.3743 56.3934L52.3082 56.7536L48.3679 58.0286C45.0399 59.1091 40.444 60.6507 35.4016 62.3507C30.3592 64.0507 25.7417 65.5635 22.3921 66.5719C20.7209 67.0834 19.3594 67.4724 18.4158 67.7317L17.328 68.0126C17.2015 68.0528 17.0712 68.0794 16.939 68.0919C17.0544 68.0257 17.1779 67.9748 17.3064 67.9406L18.3725 67.5804L22.3128 66.3054C25.6409 65.2249 30.2367 63.6833 35.2791 61.9833C40.3216 60.2833 44.9318 58.7706 48.2814 57.7621C49.9598 57.2506 51.3141 56.8616 52.265 56.6023L53.3527 56.3214C53.4792 56.2812 53.6096 56.2546 53.7417 56.2421Z" fill="#263238"/>
</svg>
