<svg width="34" height="34" viewBox="0 0 34 34" fill="none" xmlns="http://www.w3.org/2000/svg">
<g clip-path="url(#clip0_211_2056)">
<path d="M31.8726 9.49979C31.8726 9.52374 31.8726 9.55368 31.8664 9.57164C31.8352 9.80517 31.8352 10.0387 31.8538 10.2782C31.8664 10.3381 31.8788 10.398 31.9288 10.4459C32.0098 10.5357 32.1346 10.5177 32.1845 10.4099C32.2095 10.3561 32.2095 10.3022 32.197 10.2483C32.1346 10.0207 32.1221 9.78122 32.1159 9.54769C32.1159 9.53571 32.1159 9.51775 32.1159 9.49979C32.1845 9.4938 32.2469 9.48781 32.303 9.48781C32.3468 9.48182 32.3842 9.47583 32.4154 9.45787C32.5089 9.40997 32.5089 9.30818 32.4091 9.26027C32.3717 9.24231 32.3218 9.23632 32.2781 9.23632C32.1221 9.24231 31.9662 9.24231 31.8102 9.24231C31.7541 9.24231 31.6979 9.2483 31.6417 9.25428C31.6105 9.26027 31.5731 9.26027 31.5482 9.27824C31.5045 9.2962 31.4796 9.32614 31.4796 9.36805C31.4858 9.40997 31.5045 9.43392 31.5482 9.45189C31.5731 9.46985 31.6043 9.47583 31.6355 9.47583C31.7104 9.48182 31.7915 9.4938 31.8726 9.49979ZM33.5882 9.77523C33.5882 9.78122 33.5945 9.7872 33.5945 9.7872C33.6194 9.94888 33.6444 10.1046 33.6631 10.2602C33.6694 10.3141 33.6756 10.362 33.713 10.404C33.7941 10.5057 33.9189 10.4938 33.9751 10.386C34 10.3321 34.0062 10.2782 33.9938 10.2183C33.9564 10.0387 33.9376 9.85906 33.9002 9.68541C33.8752 9.57763 33.8441 9.47583 33.8129 9.38003C33.7941 9.32015 33.7505 9.27823 33.6756 9.27225C33.6008 9.26027 33.5446 9.2962 33.5134 9.35009C33.476 9.39799 33.4448 9.4459 33.4198 9.49979C33.3761 9.59559 33.3387 9.6914 33.2888 9.78122C33.2825 9.80517 33.2763 9.82313 33.2638 9.84109C33.2576 9.82912 33.2514 9.82313 33.2514 9.82313C33.1703 9.67344 33.0954 9.52374 33.0143 9.38003C33.0018 9.36805 32.9956 9.35608 32.9893 9.3441C32.9519 9.29021 32.9082 9.26027 32.8396 9.26027C32.7772 9.26626 32.7273 9.30219 32.6961 9.35608C32.6836 9.38003 32.6836 9.39799 32.6774 9.42195C32.6524 9.61356 32.6212 9.80517 32.5963 9.99678C32.5838 10.1046 32.5776 10.2123 32.5776 10.3201C32.5713 10.3441 32.5776 10.374 32.59 10.398C32.6025 10.4459 32.64 10.4758 32.6899 10.4818C32.7522 10.4878 32.7959 10.4698 32.8146 10.4219C32.8333 10.386 32.8396 10.3561 32.8458 10.3261C32.8708 10.2183 32.8895 10.1165 32.9082 10.0147C32.9207 9.95487 32.9269 9.90696 32.9457 9.84109C32.9581 9.86505 32.9706 9.88301 32.9831 9.90097C33.0392 9.97283 33.0954 10.0447 33.164 10.1046C33.2326 10.1525 33.2888 10.1465 33.3449 10.0926C33.3574 10.0806 33.3637 10.0746 33.3761 10.0626C33.4323 9.97882 33.5009 9.89499 33.5571 9.81115C33.5696 9.79918 33.5758 9.7872 33.5882 9.77523Z" fill="#3A3B7B"/>
<path d="M19.2132 9.61737C19.1698 9.73116 19.1615 9.81315 19.1815 9.88129C19.2037 9.97395 19.2611 10.0043 19.339 9.98072C20.0718 9.8068 21.6786 10.3005 22.2736 10.438C22.4139 10.4669 22.528 10.2931 22.4323 10.1372C22.2925 9.98631 20.6864 9.3401 20.0735 9.30487C19.8333 9.29184 19.4038 9.23272 19.2132 9.61737Z" fill="#3A3B7B"/>
<path d="M25.4931 7.52552C25.5712 7.56878 25.6149 7.61005 25.6364 7.65616C25.6685 7.71665 25.6516 7.7585 25.5977 7.77985C25.1133 8.00675 24.4687 8.98361 24.2085 9.32051C24.1454 9.39802 24 9.35298 23.978 9.22553C23.9825 9.08142 24.5539 8.02132 24.8728 7.73258C24.9981 7.61985 25.2051 7.39866 25.4931 7.52552Z" fill="#3A3B7B"/>
<path d="M21.6356 7.04469C21.7294 6.97682 21.8269 6.95303 21.8767 6.99714C22.6076 7.59703 22.9951 8.547 23.2351 9.41667C23.2442 9.43694 23.2447 9.46601 23.2375 9.49634C23.2345 9.52227 23.2148 9.54965 23.1834 9.57084C23.1499 9.59424 23.1211 9.60136 23.1076 9.5812C22.7873 9.16305 20.9578 7.53611 21.6356 7.04469Z" fill="#3A3B7B"/>
<path d="M6.15916 17.4451C6.33432 17.32 6.52475 17.2158 6.72626 17.1349C6.93709 17.0771 7.16181 17.0866 7.36646 17.1623C7.57106 17.2379 7.74451 17.3754 7.86046 17.554C7.96418 17.7321 8.00475 17.9378 7.97612 18.1401C7.94749 18.3423 7.85118 18.5301 7.70166 18.6752C7.58575 18.7929 7.45416 18.8954 7.31038 18.98C6.66957 19.3774 6.02304 19.7529 5.37655 20.1503C5.24427 20.2497 5.10393 20.3389 4.95689 20.417C4.73324 20.524 4.47763 20.5527 4.23428 20.498C3.99092 20.4434 3.77513 20.3088 3.6242 20.1176C3.51138 19.9822 3.41616 19.8342 3.34065 19.6767C2.72818 18.4412 2.09303 17.2111 1.50324 15.9538C1.23102 15.4095 1.00986 14.7835 0.794356 14.1794C0.701121 14.0038 0.682915 13.8003 0.743613 13.6121C0.804311 13.4239 0.939126 13.2658 1.11938 13.1715C1.29963 13.0772 1.5111 13.0541 1.70882 13.1071C1.90653 13.1602 2.07489 13.2852 2.17809 13.4555C2.49528 13.86 2.77607 14.2898 3.0174 14.74C3.62987 15.8286 4.21399 16.9172 4.80378 17.9731C4.83812 18.0314 4.87599 18.0877 4.9172 18.1418C5.36111 17.9627 5.77864 17.7285 6.15916 17.4451Z" fill="#3A3B7B"/>
<path d="M12.4917 17.0655C11.091 18.6384 8.7432 18.2411 7.56363 16.2164C6.7243 14.7794 6.57687 12.4063 8.40296 10.9095C8.7929 10.5961 9.25917 10.3827 9.75831 10.289C10.3703 10.2048 10.9944 10.3084 11.5413 10.5851C12.0882 10.8617 12.5301 11.2972 12.8037 11.8294C13.8018 13.5711 13.66 15.7918 12.4917 17.0655ZM11.9246 13.3969C11.7758 12.9689 11.4773 12.6035 11.0797 12.3627C10.8546 12.2088 10.5812 12.134 10.3055 12.1508C10.0297 12.1677 9.76839 12.2752 9.5655 12.4553C8.75457 13.1465 8.5844 14.7849 9.17418 15.7592C9.24938 15.918 9.35976 16.0592 9.49773 16.1728C9.6357 16.2865 9.79788 16.3698 9.9729 16.417C10.1479 16.4642 10.3315 16.4741 10.511 16.446C10.6904 16.4179 10.8613 16.3525 11.0116 16.2544C11.4512 15.9273 11.7737 15.4769 11.9343 14.9658C12.0949 14.4546 12.0856 13.9082 11.9077 13.4024L11.9246 13.3969Z" fill="#3A3B7B"/>
<path d="M18.2081 14.0827C18.0647 14.1123 17.9166 14.114 17.7724 14.0878C17.6283 14.0616 17.4911 14.0081 17.3688 13.9303C17.2619 13.8715 17.1698 13.7908 17.0992 13.6939C17.0287 13.5969 16.9814 13.4862 16.9608 13.3695C16.9402 13.253 16.9468 13.1334 16.98 13.0196C17.0133 12.9057 17.0725 12.8003 17.1533 12.711C17.2941 12.5316 17.494 12.4031 17.7204 12.3464C18.3117 12.1817 18.9205 12.0812 19.5352 12.047C19.6702 12.0319 19.8071 12.0429 19.9376 12.0793C20.0682 12.1157 20.1899 12.1767 20.2955 12.2589C20.4012 12.341 20.4887 12.4426 20.5529 12.5576C20.617 12.6727 20.6567 12.7989 20.6694 12.9288C20.8466 13.567 20.866 14.2361 20.726 14.8828C20.2157 16.9729 18.4577 17.6913 16.4841 17.0218C15.9302 16.8428 15.4444 16.5093 15.0891 16.0639C14.6151 15.5275 14.279 14.8918 14.108 14.2079C13.9694 13.5989 13.9845 12.9669 14.1523 12.3647C14.32 11.7625 14.6353 11.2076 15.072 10.7462C15.4865 10.2447 16.0244 9.85001 16.6373 9.5977C17.0245 9.39282 17.4777 9.33456 17.9076 9.43441C18.0051 9.46031 18.0936 9.51078 18.1639 9.58058C18.2343 9.65038 18.2839 9.73697 18.3076 9.83137C18.3313 9.92577 18.3283 10.0245 18.2989 10.1174C18.2694 10.2103 18.2146 10.294 18.1401 10.3597C17.9985 10.4827 17.8446 10.5921 17.6807 10.6863C17.1765 10.9944 16.7378 11.3915 16.3877 11.8565C16.1582 12.1574 16.0002 12.5029 15.9248 12.8687C15.8493 13.2345 15.8583 13.6117 15.9511 13.9738C16.0797 14.4676 16.3651 14.9108 16.7677 15.242C18.0153 16.3306 19.6372 15.2801 19.3537 13.7942C18.9397 13.8922 18.5767 13.9956 18.2081 14.0827Z" fill="#3A3B7B"/>
<path d="M25.8301 17.1526C23.987 18.2412 21.8888 17.1526 21.4294 14.8666C21.0948 13.2337 21.73 10.9476 23.953 10.0768C24.426 9.89547 24.939 9.83181 25.4445 9.89171C26.0518 9.99841 26.6089 10.2854 27.0372 10.7121C27.4655 11.1388 27.7436 11.6838 27.832 12.2703C28.2063 14.2134 27.3556 16.2871 25.8301 17.1526ZM26.471 13.4895C26.4704 13.0373 26.3038 12.5998 26.0003 12.2539C25.8381 12.04 25.6035 11.8868 25.3367 11.8202C25.0699 11.7537 24.7873 11.7781 24.5371 11.8893C23.539 12.3029 22.8358 13.8052 23.091 14.9101C23.1105 15.0835 23.1692 15.2507 23.263 15.4001C23.3569 15.5494 23.4836 15.6773 23.6343 15.7748C23.785 15.8722 23.956 15.9369 24.1355 15.9643C24.315 15.9917 24.4985 15.9811 24.6732 15.9334C25.2008 15.7565 25.6576 15.4259 25.9799 14.9877C26.3022 14.5496 26.4739 14.0258 26.471 13.4895Z" fill="#3A3B7B"/>
<path d="M29.6958 17.6098C29.668 17.809 29.5589 17.9894 29.3924 18.1114C29.226 18.2333 29.0158 18.2869 28.8083 18.2602C28.6007 18.2335 28.4127 18.1287 28.2857 17.969C28.1585 17.8092 28.1028 17.6076 28.1306 17.4084C28.1584 17.2091 28.2676 17.0287 28.434 16.9067C28.6005 16.7847 28.8106 16.7312 29.0181 16.7579C29.2257 16.7846 29.4137 16.8894 29.5408 17.0491C29.6679 17.2089 29.7237 17.4105 29.6958 17.6098ZM29.2024 10.2672C29.3103 10.1091 29.4685 9.98873 29.6535 9.92399C29.8385 9.85925 30.0403 9.85364 30.2289 9.90799C30.4206 9.95403 30.59 10.0619 30.7087 10.2135C30.8274 10.3651 30.8883 10.5512 30.8811 10.7408C30.8561 11.0448 30.8087 11.3467 30.7393 11.6443C30.5521 12.6512 30.3707 13.6582 30.1722 14.6542C30.0815 15.0516 29.9624 15.4326 29.8319 15.8353C29.7865 15.9612 29.7107 16.075 29.6108 16.1674C29.5486 16.2368 29.4692 16.2901 29.3799 16.3223C29.2906 16.3545 29.1943 16.3645 29.0999 16.3515C29.0055 16.3385 28.916 16.3028 28.8397 16.2478C28.7635 16.1928 28.7029 16.1202 28.6637 16.0367C28.5963 15.8871 28.5596 15.7262 28.5559 15.5632C28.5559 14.8883 28.5559 14.2079 28.6013 13.5275C28.6784 12.5566 28.83 11.5924 29.055 10.6428C29.0815 10.5156 29.1314 10.3939 29.2024 10.2836V10.2672Z" fill="#3A3B7B"/>
<path fill-rule="evenodd" clip-rule="evenodd" d="M3.7631 21.9835C3.69615 22.127 3.67778 22.287 3.7105 22.4409C3.73227 22.6438 3.78008 22.8434 3.85285 23.035C3.9437 23.2698 4.04536 23.5019 4.1707 23.788C4.19953 23.8538 4.22965 23.9225 4.26118 23.9949C4.43021 24.3824 4.64231 24.8778 4.92521 25.5946C5.00529 25.7983 5.0764 26.0036 5.148 26.2103C5.17693 26.2938 5.20596 26.3776 5.23567 26.4616C5.34219 26.7602 5.52546 27.0285 5.7684 27.2411C5.87155 27.3579 6.00838 27.4431 6.16181 27.4857C6.31823 27.5291 6.48459 27.5263 6.63935 27.4778C6.79411 27.4292 6.93004 27.337 7.02948 27.2133C7.12698 27.0919 7.18496 26.9457 7.19623 26.7929C7.25948 26.4954 7.23789 26.1868 7.13364 25.8999C6.96818 25.4236 6.7797 24.9466 6.56235 24.48L6.56136 24.478C6.2038 23.748 5.84035 23.023 5.45971 22.2978L5.45686 22.2927C5.34543 22.1038 5.20061 21.9349 5.02892 21.7936C4.91746 21.6675 4.76372 21.5825 4.59393 21.5532C4.42052 21.5232 4.24168 21.5534 4.08933 21.6383C3.9452 21.7173 3.83096 21.8382 3.7631 21.9835Z" fill="#3A3B7B"/>
<path fill-rule="evenodd" clip-rule="evenodd" d="M9.22423 20.1861C8.6636 20.0467 8.07809 20.0264 7.50852 20.1266C7.06736 20.1683 6.63348 20.266 6.33219 20.4594C6.17895 20.5579 6.05506 20.6843 5.98614 20.845C5.91685 21.0066 5.908 21.1914 5.96479 21.3973C6.06847 21.7744 6.20311 22.141 6.33728 22.5065L6.35901 22.5657L6.35953 22.5671C6.7635 23.6289 7.17133 24.6871 7.58286 25.7417C7.63085 25.9079 7.69871 26.0682 7.78508 26.2194L7.7867 26.2222C7.90079 26.4101 8.04713 26.5781 8.21954 26.7192C8.30576 26.7968 8.41239 26.8505 8.52801 26.8745C8.64477 26.8987 8.76618 26.8917 8.87904 26.8541C8.99195 26.8167 9.09192 26.7501 9.16811 26.6618C9.24306 26.5749 9.29214 26.4702 9.31017 26.3589C9.38455 26.0562 9.36073 25.739 9.24183 25.4497C9.20473 25.3524 9.17562 25.2529 9.14495 25.1482C9.13472 25.1133 9.12436 25.0778 9.11342 25.0416C10.0554 24.6882 11.0577 24.213 11.4102 23.1074C11.5482 22.7254 11.5597 22.3117 11.4431 21.9231C11.3264 21.5341 11.0869 21.1893 10.7577 20.9361C10.3097 20.5818 9.78629 20.3258 9.22423 20.1861ZM7.67022 21.5421C7.68877 21.5369 7.70746 21.5322 7.7262 21.5277C8.33948 21.4352 8.96693 21.5585 9.49304 21.8748C9.72489 22.0296 9.81987 22.2016 9.83618 22.367C9.85301 22.5374 9.78848 22.722 9.65883 22.8994C9.41385 23.2346 8.96679 23.5029 8.56296 23.5529C8.26857 22.9022 7.96961 22.2252 7.67022 21.5421Z" fill="#3A3B7B"/>
<path d="M12.9619 18.995C13.6295 18.699 14.4565 18.6479 15.1037 18.856C15.2667 18.9016 15.408 19.0001 15.5037 19.1348C15.5987 19.2687 15.6426 19.43 15.6279 19.5912C15.627 19.6959 15.6002 19.7989 15.5498 19.8918C15.4986 19.9864 15.4243 20.0677 15.3334 20.1289C15.2424 20.1901 15.1375 20.2295 15.0274 20.2435C14.9172 20.2576 14.8052 20.2461 14.7007 20.2098L14.6928 20.207L14.6853 20.2033C14.6319 20.1764 14.5751 20.1562 14.5164 20.143L14.5126 20.1422C14.0574 20.0262 13.628 20.2185 13.4711 20.4547C13.3963 20.5674 13.3871 20.6811 13.4494 20.7846C13.5161 20.8954 13.6797 21.0197 14.0109 21.1083C14.102 21.1323 14.1953 21.1555 14.29 21.179C14.5519 21.2441 14.824 21.3117 15.0872 21.4054L15.0882 21.4057C16.3022 21.8491 16.7542 22.7672 16.5995 23.6308C16.4464 24.4848 15.7033 25.2621 14.5857 25.4454C14.1791 25.5319 13.7559 25.515 13.3581 25.3965C12.9593 25.2776 12.5998 25.0606 12.3153 24.7671L12.3079 24.7594C12.2181 24.6488 12.1577 24.5189 12.1309 24.381C12.1063 24.2566 12.1193 24.1281 12.1683 24.0105C12.217 23.8936 12.2993 23.7924 12.4056 23.7187C12.5179 23.6351 12.6533 23.585 12.7949 23.5745C12.9361 23.5641 13.0774 23.5936 13.2014 23.6592C13.3253 23.7166 13.4405 23.7899 13.5439 23.877L13.5458 23.8786C13.7287 24.0391 13.95 24.081 14.1622 24.0422C14.3775 24.0029 14.58 23.8806 14.7102 23.7184C14.8396 23.5572 14.8915 23.3657 14.8299 23.1798C14.7679 22.9925 14.5814 22.7827 14.1716 22.6073C14.0645 22.5637 13.9535 22.5285 13.838 22.4942C13.8068 22.485 13.7751 22.4758 13.7431 22.4664C13.6577 22.4415 13.5698 22.4159 13.4836 22.3877C13.4242 22.3682 13.3654 22.3499 13.3071 22.3316C13.1477 22.2818 12.9923 22.2332 12.8428 22.1681C12.5173 22.0618 12.2362 21.8576 12.0411 21.5857C11.8453 21.3128 11.7467 20.9864 11.7601 20.6553C11.7612 19.8484 12.2907 19.2926 12.9619 18.995Z" fill="#3A3B7B"/>
<path d="M21.4261 18.9091C21.2967 18.8484 21.1535 18.8196 21.0096 18.8253C20.8657 18.8309 20.7254 18.8709 20.6016 18.9416C20.4786 19.0119 20.3756 19.1102 20.3018 19.2279C20.2341 19.327 20.1873 19.4378 20.1639 19.5542C20.1406 19.6705 20.1411 19.79 20.1655 19.906C20.1896 20.0551 20.2164 20.2001 20.2428 20.3431C20.2865 20.5798 20.329 20.8111 20.3571 21.047L20.3581 21.0529C20.422 21.4228 20.4554 21.7969 20.4584 22.1718L20.4587 22.1771C20.4805 22.582 20.3368 22.979 20.0583 23.2838L20.0539 23.2892C19.9633 23.4007 19.8422 23.4857 19.704 23.5349C19.5659 23.584 19.4163 23.5953 19.2718 23.5675C19.1274 23.5397 18.9939 23.4739 18.8862 23.3774C18.7786 23.2809 18.7009 23.1572 18.6621 23.0208C18.5794 22.7333 18.5315 22.4377 18.5193 22.1397L18.6607 19.9799C18.6627 19.9517 18.6651 19.9228 18.6675 19.8936C18.6729 19.828 18.6784 19.7612 18.6807 19.6988C18.6841 19.6071 18.6812 19.5128 18.6589 19.4236C18.6362 19.3324 18.5928 19.2456 18.516 19.1717C18.4399 19.0985 18.3372 19.0445 18.2079 19.0078C17.9741 18.9429 17.7765 18.9449 17.6118 19.012C17.447 19.0791 17.3341 19.2036 17.2542 19.3475C17.1749 19.4902 17.124 19.6591 17.0854 19.8283C17.0569 19.9538 17.0339 20.0856 17.0121 20.2111C17.0045 20.2543 16.9971 20.2967 16.9897 20.338L16.9895 20.3392C16.8727 21.0271 16.8379 21.7256 16.8858 22.4212C16.8948 22.797 16.9764 23.168 17.1267 23.5152C17.2963 23.9632 17.6034 24.3514 18.0075 24.6285C18.4124 24.9061 18.8957 25.0591 19.3933 25.0672C19.8908 25.0752 20.3792 24.938 20.7937 24.6737C21.2076 24.4098 21.5283 24.0316 21.7135 23.589C21.9726 23.0253 22.0943 22.4122 22.0691 21.7966C22.0539 21.3471 22.0284 20.8941 22.0031 20.4435C21.9906 20.2224 21.9782 20.0018 21.9671 19.7826C21.9615 19.5627 21.8859 19.3498 21.7506 19.1724C21.6668 19.0602 21.5554 18.9697 21.4261 18.9091Z" fill="#3A3B7B"/>
<path d="M26.0082 22.2957C25.995 22.3117 25.9812 22.3283 25.9667 22.3455C25.8614 21.7625 25.7638 21.1797 25.6661 20.596C25.6311 20.3865 25.5958 20.1762 25.5604 19.9665L25.5564 19.9431L25.5434 19.9229C25.5191 19.8849 25.5166 19.8475 25.5166 19.768V19.7588L25.5152 19.7497C25.4887 19.5854 25.4113 19.4325 25.293 19.311C25.1751 19.1899 25.0219 19.1056 24.8534 19.069C24.6851 19.0292 24.5084 19.0379 24.3453 19.0942C24.1826 19.1504 24.0409 19.2513 23.9377 19.3844C23.8519 19.4865 23.7815 19.5997 23.7288 19.7208C23.6092 19.9814 23.4885 20.2428 23.3676 20.5048L23.3655 20.5094C23.0634 21.1636 22.7593 21.8222 22.4641 22.4859L22.4632 22.4881C22.2819 22.9185 22.1323 23.372 21.9832 23.8241C21.9534 23.9143 21.9236 24.0045 21.8936 24.0945C21.8398 24.2372 21.8163 24.3887 21.8243 24.5402C21.8145 24.6758 21.8484 24.8111 21.9213 24.9278C21.9957 25.0468 22.1071 25.1405 22.2399 25.1956C22.3806 25.2548 22.5378 25.2674 22.6868 25.2313C22.8355 25.1953 22.9675 25.113 23.0621 24.9972C23.1829 24.8546 23.2868 24.699 23.3716 24.5342C23.6217 24.0432 23.8607 23.5462 24.0987 23.0513C24.1908 22.8599 24.2802 22.6885 24.382 22.5018C24.389 22.5248 24.3961 22.5472 24.4035 22.5697C24.5102 23.0205 24.6902 23.4522 24.937 23.8492C24.9837 23.9332 25.0488 24.0067 25.1277 24.0646C25.2076 24.1231 25.2998 24.1642 25.398 24.1851C25.4961 24.2059 25.5978 24.206 25.6959 24.1853C25.7939 24.1647 25.8864 24.1236 25.9664 24.0653L26.1246 23.9516L27.3528 22.9588L27.2801 23.403C27.1804 24.0136 27.0815 24.6191 26.9764 25.2247C26.9076 25.4932 26.9077 25.7736 26.9767 26.0419C27.0066 26.193 27.0827 26.332 27.1953 26.4413C27.3089 26.5515 27.4543 26.6264 27.6128 26.6563C27.7712 26.6861 27.9354 26.6696 28.0839 26.6088C28.2303 26.5489 28.3548 26.4487 28.4419 26.321C28.6444 26.0799 28.7704 25.788 28.805 25.48C28.8572 25.0451 28.916 24.6042 28.975 24.1635C29.0428 23.6555 29.1107 23.1477 29.168 22.6496L29.1682 22.648C29.2234 22.1028 29.25 21.5553 29.2482 21.0075C29.2603 20.8344 29.2154 20.6619 29.1197 20.5145C29.0237 20.3666 28.8815 20.2517 28.7134 20.1859C28.5386 20.1096 28.3428 20.0892 28.155 20.1278C27.9685 20.166 27.7996 20.2604 27.6729 20.3972C27.4463 20.5983 27.2339 20.8134 27.0367 21.0413L27.0354 21.0428C26.8202 21.3002 26.6064 21.5626 26.3941 21.8234C26.265 21.9819 26.1362 22.14 26.0082 22.2957Z" fill="#3A3B7B"/>
</g>
<defs>
<clipPath id="clip0_211_2056">
<rect width="32.7153" height="20.186" fill="white" transform="translate(0.70837 6.97475) scale(1.01762)"/>
</clipPath>
</defs>
</svg>
