<svg width="37" height="34" viewBox="0 0 37 34" fill="none" xmlns="http://www.w3.org/2000/svg">
<g clip-path="url(#clip0_211_2076)">
<path d="M8.74304 9.80811C7.30461 9.80811 5.92511 10.3795 4.90799 11.3966L1.58853 14.7161C0.571412 15.7332 0 17.1127 0 18.5512C0 21.5465 2.42823 23.9748 5.42361 23.9748C6.86204 23.9748 8.24154 23.4033 9.25866 22.3862L11.5547 20.0901C11.5547 20.0901 11.5548 20.0902 11.5547 20.0901L18.2448 13.4001C18.7305 12.9143 19.3894 12.6414 20.0764 12.6414C21.2265 12.6414 22.2016 13.391 22.5397 14.4284L24.651 12.317C23.6878 10.8084 21.9989 9.80811 20.0764 9.80811C18.6379 9.80811 17.2584 10.3795 16.2413 11.3966L7.25521 20.3828C6.76944 20.8685 6.11059 21.1414 5.42361 21.1414C3.99303 21.1414 2.83333 19.9817 2.83333 18.5512C2.83333 17.8642 3.10623 17.2053 3.592 16.7195L6.91144 13.4001C7.39721 12.9143 8.05605 12.6414 8.74304 12.6414C9.89323 12.6414 10.8683 13.3911 11.2063 14.4284L13.3177 12.3171C12.3545 10.8085 10.6656 9.80811 8.74304 9.80811Z" fill="#394149"/>
<path d="M18.5885 20.3828C18.1028 20.8685 17.4439 21.1414 16.7569 21.1414C15.6069 21.1414 14.6319 20.392 14.2938 19.3549L12.1825 21.4662C13.1457 22.9745 14.8345 23.9748 16.7569 23.9748C18.1954 23.9748 19.5749 23.4033 20.592 22.3862L29.5781 13.4001C30.0638 12.9143 30.7227 12.6414 31.4097 12.6414C32.8403 12.6414 34 13.8011 34 15.2317C34 15.9187 33.7271 16.5775 33.2413 17.0633L29.9218 20.3828C29.4361 20.8685 28.7772 21.1414 28.0902 21.1414C26.9401 21.1414 25.9651 20.3919 25.627 19.3546L23.5157 21.466C24.4789 22.9745 26.1677 23.9748 28.0902 23.9748C29.5287 23.9748 30.9082 23.4033 31.9253 22.3862L35.2447 19.0668C36.2618 18.0497 36.8333 16.6701 36.8333 15.2317C36.8333 12.2363 34.4051 9.80811 31.4097 9.80811C29.9712 9.80811 28.5917 10.3795 27.5746 11.3966L18.5885 20.3828Z" fill="#394149"/>
</g>
<defs>
<clipPath id="clip0_211_2076">
<rect width="36.1956" height="13.9214" fill="white" transform="translate(0 9.80811) scale(1.01762)"/>
</clipPath>
</defs>
</svg>
