<svg width="34" height="34" viewBox="0 0 34 34" fill="none" xmlns="http://www.w3.org/2000/svg">
<rect width="34" height="34" rx="5.56856" fill="#F5F7FA"/>
<g clip-path="url(#clip0_211_2537)">
<path d="M27.2266 8.28078C27.2266 8.61086 27.4974 8.87844 27.8316 8.87844H28.4366C28.7708 8.87844 29.0417 8.61086 29.0417 8.28078C29.0417 7.95071 28.7708 7.68313 28.4366 7.68313H27.8316C27.4974 7.68313 27.2266 7.95071 27.2266 8.28078Z" fill="#212326"/>
<path d="M9.68055 26.8081H12.6197L11.764 25.9629C11.5371 25.7387 11.2293 25.6128 10.9084 25.6128H9.68055C5.00243 25.6128 1.21007 21.8667 1.21007 17.2456C1.21007 12.6246 5.00243 8.87845 9.68055 8.87844H19.3611C24.0392 8.87844 27.8316 12.6246 27.8316 17.2456C27.8316 21.8667 24.0392 25.6128 19.3611 25.6128H15.7398C15.2584 25.6128 14.7967 25.4239 14.4563 25.0877L13.4539 24.0974C12.8866 23.537 12.1171 23.2222 11.3147 23.2222H9.68055C6.33902 23.2222 3.63021 20.5464 3.63021 17.2456C3.63021 13.9448 6.33902 11.2691 9.68055 11.2691H19.3611C22.7026 11.2691 25.4114 13.9448 25.4114 17.2456C25.4114 20.5464 22.7026 23.2222 19.3611 23.2222H17.0359C16.5545 23.2222 16.0928 23.0333 15.7524 22.6971L14.7499 21.7068C14.1826 21.1464 13.4131 20.8316 12.6108 20.8316H9.68055C7.67566 20.8316 6.05035 19.2261 6.05035 17.2456C6.05035 15.2652 7.67566 13.6597 9.68055 13.6597H19.3611C21.366 13.6597 22.9913 15.2652 22.9913 17.2456C22.9913 19.2019 21.4054 20.7924 19.4343 20.8308L19.4339 20.8316H18.5485C18.0671 20.8316 17.6054 20.6427 17.265 20.3064L16.2625 19.3162C15.797 18.8563 15.1954 18.5619 14.5512 18.471L14.5208 18.4409H9.68055C9.01226 18.4409 8.47048 17.9058 8.47048 17.2456C8.47048 16.5855 9.01226 16.0503 9.68055 16.0503H19.3611C20.0294 16.0503 20.5712 16.5855 20.5712 17.2456C20.5712 17.9058 20.0294 18.4409 19.3611 18.4409H16.941L17.7966 19.2862C18.0235 19.5103 18.3313 19.6363 18.6522 19.6363H19.3611C20.6977 19.6363 21.7812 18.5659 21.7812 17.2456C21.7812 15.9253 20.6977 14.855 19.3611 14.855H9.68055C8.34396 14.855 7.26041 15.9253 7.26041 17.2456C7.26041 18.5659 8.34396 19.6363 9.68055 19.6363H14.1234C14.6048 19.6363 15.0665 19.8252 15.4069 20.1614L16.4094 21.1516C16.9767 21.712 17.7461 22.0269 18.5485 22.0269H19.6636V22.0177C22.1959 21.8635 24.2014 19.7859 24.2014 17.2456C24.2014 14.605 22.0343 12.4644 19.3611 12.4644H9.68055C7.00736 12.4644 4.84028 14.605 4.84028 17.2456C4.84028 19.8863 7.00736 22.0269 9.68055 22.0269H12.6108C13.0922 22.0269 13.5539 22.2158 13.8943 22.552L14.8968 23.5422C15.4641 24.1027 16.2336 24.4175 17.0359 24.4175H19.3611C23.3709 24.4175 26.6215 21.2066 26.6215 17.2456C26.6215 13.2847 23.3709 10.0738 19.3611 10.0738H9.68055C5.67072 10.0738 2.42014 13.2847 2.42014 17.2456C2.42014 21.2066 5.67072 24.4175 9.68055 24.4175H11.3147C11.7961 24.4175 12.2578 24.6064 12.5982 24.9426L13.6007 25.9329C14.168 26.4933 14.9375 26.8081 15.7398 26.8081H19.3611C24.7075 26.8081 29.0417 22.5269 29.0417 17.2456C29.0417 11.9644 24.7075 7.68313 19.3611 7.68313L9.68055 7.68313C4.33413 7.68313 -4.67399e-07 11.9644 0 17.2456C4.67399e-07 22.5269 4.33413 26.8081 9.68055 26.8081Z" fill="#212326"/>
</g>
<defs>
<clipPath id="clip0_211_2537">
<rect width="28.5388" height="18.7939" fill="white" transform="translate(0 7.68313) scale(1.01762)"/>
</clipPath>
</defs>
</svg>
