<svg width="34" height="34" viewBox="0 0 34 34" fill="none" xmlns="http://www.w3.org/2000/svg">
<g clip-path="url(#clip0_211_2049)">
<path fill-rule="evenodd" clip-rule="evenodd" d="M9.90661 9.88927L2.83335 16.8914C4.24813 18.292 5.8643 19.4724 7.62638 20.3958C8.11343 21.6748 8.87687 22.8742 9.91668 23.9035C13.8287 27.7762 20.1713 27.7762 24.0833 23.9035C25.1232 22.8742 25.8866 21.6748 26.3736 20.3957C28.1357 19.4724 29.7519 18.292 31.1667 16.8914L24.0991 9.89497C24.0939 9.88973 24.0886 9.8845 24.0833 9.87927C20.1713 6.00658 13.8287 6.00658 9.91668 9.87927C9.91333 9.88261 9.90996 9.88593 9.90661 9.88927ZM23.4065 21.6591C21.3453 22.3478 19.1815 22.7004 17 22.7004C14.8186 22.7004 12.6548 22.3478 10.5936 21.6591C10.8169 21.9524 11.0635 22.2339 11.3333 22.5011C14.463 25.5993 19.537 25.5993 22.6667 22.5011C22.9365 22.2339 23.1832 21.9524 23.4065 21.6591ZM11.4786 11.1414C12.0101 11.489 12.5752 11.7865 13.1665 12.029C14.3819 12.5273 15.6845 12.7838 17 12.7838C18.3155 12.7838 19.6181 12.5273 20.8335 12.029C21.4248 11.7865 21.9899 11.489 22.5215 11.1414C19.4309 8.23029 14.5691 8.2303 11.4786 11.1414Z" fill="#3B4158"/>
</g>
<defs>
<clipPath id="clip0_211_2049">
<rect width="27.8428" height="19.4899" fill="white" transform="translate(2.83335 6.97475) scale(1.01762)"/>
</clipPath>
</defs>
</svg>
