<svg width="34" height="34" viewBox="0 0 34 34" fill="none" xmlns="http://www.w3.org/2000/svg">
<path d="M28.3333 29.75V26.9167C28.3333 25.4138 27.7363 23.9724 26.6736 22.9097C25.6109 21.847 24.1695 21.25 22.6666 21.25H21.25C20.8743 21.25 20.5139 21.1007 20.2482 20.8351C19.9826 20.5694 19.8333 20.2091 19.8333 19.8333V12.75C19.8333 11.9986 19.5348 11.2779 19.0034 10.7465C18.4721 10.2152 17.7514 9.91667 17 9.91667C16.2485 9.91667 15.5279 10.2152 14.9965 10.7465C14.4652 11.2779 14.1666 11.9986 14.1666 12.75V25.5L10.7666 20.9667C10.5027 20.6148 10.1605 20.3292 9.76709 20.1325C9.37366 19.9357 8.93984 19.8333 8.49998 19.8333H7.88515C6.65973 19.8333 5.66665 20.8264 5.66665 22.0518C5.66665 22.4542 5.77573 22.8494 5.98257 23.1937L9.91665 29.75M17 5.66667V4.25V5.66667ZM25.5 14.1667H26.9166H25.5ZM7.08332 14.1667H8.49998H7.08332ZM10.4026 7.56925L9.40098 6.56767L10.4026 7.56925ZM23.5974 7.56925L24.599 6.56767L23.5974 7.56925Z" fill="#4CAF4F"/>
<path d="M28.3333 29.75V26.9167C28.3333 25.4138 27.7363 23.9724 26.6736 22.9097C25.6109 21.847 24.1695 21.25 22.6666 21.25H21.25C20.8743 21.25 20.5139 21.1007 20.2482 20.8351C19.9826 20.5694 19.8333 20.2091 19.8333 19.8333V12.75C19.8333 11.9986 19.5348 11.2779 19.0034 10.7465C18.4721 10.2152 17.7514 9.91667 17 9.91667V9.91667C16.2485 9.91667 15.5279 10.2152 14.9965 10.7465C14.4652 11.2779 14.1666 11.9986 14.1666 12.75V25.5L10.7666 20.9667C10.5027 20.6148 10.1605 20.3292 9.76709 20.1325C9.37366 19.9357 8.93984 19.8333 8.49998 19.8333H7.88515C6.65973 19.8333 5.66665 20.8264 5.66665 22.0518C5.66665 22.4542 5.77573 22.8494 5.98257 23.1937L9.91665 29.75M17 5.66667V4.25M25.5 14.1667H26.9166M7.08332 14.1667H8.49998M10.4026 7.56925L9.40098 6.56767M23.5974 7.56925L24.599 6.56767" stroke="#4CAF4F" stroke-width="1.39214" stroke-linecap="round" stroke-linejoin="round"/>
</svg>
