<svg width="34" height="34" viewBox="0 0 34 34" fill="none" xmlns="http://www.w3.org/2000/svg">
<mask id="path-1-inside-1_211_2338" fill="white">
<path d="M20.054 16.7483C19.8835 16.7483 19.7251 16.7014 19.5844 16.626V16.628C19.5844 16.8963 19.4801 17.1483 19.2909 17.3371C19.1016 17.5263 18.8498 17.6306 18.5818 17.6306C18.4087 17.6306 18.2484 17.5826 18.1062 17.5051C18.0918 17.7506 17.9937 17.9801 17.8186 18.1553C17.6294 18.3446 17.3776 18.4489 17.1094 18.4489C16.5765 18.4489 16.1438 18.03 16.1126 17.505C15.9477 17.5941 15.7613 17.6408 15.569 17.6285C15.0448 17.5941 14.6343 17.1412 14.6343 16.5971V12.0874L14.1208 12.977C13.9252 13.3173 13.5591 13.5286 13.1649 13.5286C12.9728 13.5286 12.7831 13.4782 12.615 13.3819C12.4058 13.2606 12.2561 13.0658 12.1938 12.8328C12.1312 12.5997 12.1636 12.3559 12.2846 12.1469C12.2848 12.1469 13.9648 9.23768 14.0673 9.05897C14.0794 9.0321 14.1142 8.95417 14.1437 8.88775C14.1719 8.82434 14.1961 8.75925 14.2193 8.69383C14.7259 7.26351 15.9804 6.37503 17.4934 6.37503C19.458 6.37503 21.0564 8.10825 21.0564 10.2387L21.0566 15.7455C21.0566 16.0135 20.9525 16.2654 20.7634 16.4548C20.5741 16.644 20.3223 16.7483 20.054 16.7483L20.054 16.7483ZM17.4934 6.90779C16.1934 6.90779 15.1572 7.64209 14.7215 8.87201C14.6936 8.95011 14.6646 9.02821 14.6307 9.10431C14.5324 9.32476 14.5324 9.32476 14.5047 9.35646L14.501 9.35329C14.3638 9.61213 13.9563 10.3179 12.7459 12.4136C12.6962 12.4995 12.683 12.5993 12.7084 12.6948C12.7341 12.7902 12.7956 12.8707 12.8809 12.9199C13.1456 13.0719 13.5081 12.9738 13.6589 12.711L14.6701 10.9604C14.7305 10.8561 14.8526 10.8048 14.9698 10.8365C15.0863 10.8677 15.1672 10.9734 15.1672 11.0939V16.5973C15.1672 16.8569 15.3631 17.0811 15.604 17.0969C15.7428 17.1042 15.8723 17.0577 15.9696 16.9606C16.058 16.8721 16.1068 16.7543 16.1068 16.6283V13.029C16.1068 12.8818 16.2261 12.7625 16.3733 12.7625C16.5205 12.7625 16.6398 12.8816 16.6398 13.029L16.6396 17.4464C16.6396 17.7054 16.8504 17.9162 17.1094 17.9162C17.2352 17.9162 17.3534 17.8675 17.442 17.779C17.5304 17.6904 17.5792 17.5723 17.5792 17.4464V13.029C17.5792 12.8818 17.6983 12.7625 17.8457 12.7625C17.9929 12.7625 18.1122 12.8816 18.1122 13.029L18.112 16.5869V16.6283C18.112 16.8871 18.3228 17.0979 18.582 17.0979C18.7076 17.0979 18.8254 17.049 18.9146 16.9602C19.003 16.8719 19.0517 16.7541 19.0517 16.6281V13.0288C19.0517 12.8816 19.1709 12.7623 19.3182 12.7623C19.4654 12.7623 19.5847 12.8814 19.5847 13.0288L19.5844 15.7457C19.5844 16.0048 19.7952 16.2156 20.054 16.2156C20.18 16.2156 20.2978 16.1667 20.3863 16.0784C20.4751 15.9896 20.5236 15.8715 20.5236 15.7457L20.5238 10.2388C20.5238 8.4023 19.1644 6.90785 17.4934 6.90785L17.4934 6.90779Z"/>
</mask>
<path d="M20.054 16.7483C19.8835 16.7483 19.7251 16.7014 19.5844 16.626V16.628C19.5844 16.8963 19.4801 17.1483 19.2909 17.3371C19.1016 17.5263 18.8498 17.6306 18.5818 17.6306C18.4087 17.6306 18.2484 17.5826 18.1062 17.5051C18.0918 17.7506 17.9937 17.9801 17.8186 18.1553C17.6294 18.3446 17.3776 18.4489 17.1094 18.4489C16.5765 18.4489 16.1438 18.03 16.1126 17.505C15.9477 17.5941 15.7613 17.6408 15.569 17.6285C15.0448 17.5941 14.6343 17.1412 14.6343 16.5971V12.0874L14.1208 12.977C13.9252 13.3173 13.5591 13.5286 13.1649 13.5286C12.9728 13.5286 12.7831 13.4782 12.615 13.3819C12.4058 13.2606 12.2561 13.0658 12.1938 12.8328C12.1312 12.5997 12.1636 12.3559 12.2846 12.1469C12.2848 12.1469 13.9648 9.23768 14.0673 9.05897C14.0794 9.0321 14.1142 8.95417 14.1437 8.88775C14.1719 8.82434 14.1961 8.75925 14.2193 8.69383C14.7259 7.26351 15.9804 6.37503 17.4934 6.37503C19.458 6.37503 21.0564 8.10825 21.0564 10.2387L21.0566 15.7455C21.0566 16.0135 20.9525 16.2654 20.7634 16.4548C20.5741 16.644 20.3223 16.7483 20.054 16.7483L20.054 16.7483ZM17.4934 6.90779C16.1934 6.90779 15.1572 7.64209 14.7215 8.87201C14.6936 8.95011 14.6646 9.02821 14.6307 9.10431C14.5324 9.32476 14.5324 9.32476 14.5047 9.35646L14.501 9.35329C14.3638 9.61213 13.9563 10.3179 12.7459 12.4136C12.6962 12.4995 12.683 12.5993 12.7084 12.6948C12.7341 12.7902 12.7956 12.8707 12.8809 12.9199C13.1456 13.0719 13.5081 12.9738 13.6589 12.711L14.6701 10.9604C14.7305 10.8561 14.8526 10.8048 14.9698 10.8365C15.0863 10.8677 15.1672 10.9734 15.1672 11.0939V16.5973C15.1672 16.8569 15.3631 17.0811 15.604 17.0969C15.7428 17.1042 15.8723 17.0577 15.9696 16.9606C16.058 16.8721 16.1068 16.7543 16.1068 16.6283V13.029C16.1068 12.8818 16.2261 12.7625 16.3733 12.7625C16.5205 12.7625 16.6398 12.8816 16.6398 13.029L16.6396 17.4464C16.6396 17.7054 16.8504 17.9162 17.1094 17.9162C17.2352 17.9162 17.3534 17.8675 17.442 17.779C17.5304 17.6904 17.5792 17.5723 17.5792 17.4464V13.029C17.5792 12.8818 17.6983 12.7625 17.8457 12.7625C17.9929 12.7625 18.1122 12.8816 18.1122 13.029L18.112 16.5869V16.6283C18.112 16.8871 18.3228 17.0979 18.582 17.0979C18.7076 17.0979 18.8254 17.049 18.9146 16.9602C19.003 16.8719 19.0517 16.7541 19.0517 16.6281V13.0288C19.0517 12.8816 19.1709 12.7623 19.3182 12.7623C19.4654 12.7623 19.5847 12.8814 19.5847 13.0288L19.5844 15.7457C19.5844 16.0048 19.7952 16.2156 20.054 16.2156C20.18 16.2156 20.2978 16.1667 20.3863 16.0784C20.4751 15.9896 20.5236 15.8715 20.5236 15.7457L20.5238 10.2388C20.5238 8.4023 19.1644 6.90785 17.4934 6.90785L17.4934 6.90779Z" fill="#4CAF4F"/>
<path d="M20.054 16.7483V15.8039H23.3908L20.549 17.5527L20.054 16.7483ZM19.5844 16.626H18.64V15.0479L20.0307 15.7937L19.5844 16.626ZM19.2909 17.3371L18.6231 16.6693L18.6239 16.6684L19.2909 17.3371ZM18.1062 17.5051L17.1633 17.45L17.2502 15.9636L18.5579 16.6757L18.1062 17.5051ZM17.8186 18.1553L18.4868 18.8228L18.4865 18.8231L17.8186 18.1553ZM16.1126 17.505L15.6635 16.6741L16.9675 15.9694L17.0554 17.449L16.1126 17.505ZM15.569 17.6285L15.5085 18.571L15.5072 18.5709L15.569 17.6285ZM14.6343 12.0874L13.8164 11.6153L15.5788 8.562V12.0874H14.6343ZM14.1208 12.977L13.302 12.5064L13.3028 12.5049L14.1208 12.977ZM12.615 13.3819L12.1455 14.2014L12.1414 14.199L12.615 13.3819ZM12.1938 12.8328L13.106 12.588L13.1063 12.5891L12.1938 12.8328ZM12.2846 12.1469L11.4673 11.6737L11.7401 11.2025H12.2846V12.1469ZM14.0673 9.05897L14.9274 9.44898L14.9089 9.48988L14.8865 9.52883L14.0673 9.05897ZM14.1437 8.88775L13.2807 8.50398L13.2807 8.50397L14.1437 8.88775ZM14.2193 8.69383L15.1095 9.00917L15.1094 9.00943L14.2193 8.69383ZM21.0564 10.2387L20.112 10.2387V10.2387H21.0564ZM21.0566 15.7455L22.001 15.7455V15.7455H21.0566ZM20.7634 16.4548L21.4318 17.122L21.4312 17.1226L20.7634 16.4548ZM20.054 16.7483V17.6928H16.7172L19.559 15.944L20.054 16.7483ZM17.4934 6.90779V5.96335H18.7455L18.4015 7.16725L17.4934 6.90779ZM14.7215 8.87201L15.6117 9.18739L15.611 9.18942L14.7215 8.87201ZM14.6307 9.10431L15.4935 9.48841L15.4933 9.48891L14.6307 9.10431ZM14.5047 9.35646L15.2159 9.97788L14.598 10.685L13.8874 10.0712L14.5047 9.35646ZM14.501 9.35329L13.6665 8.91103L14.2214 7.86395L15.1183 8.63852L14.501 9.35329ZM12.7459 12.4136L13.5638 12.8859L13.5634 12.8866L12.7459 12.4136ZM12.7084 12.6948L11.7964 12.9403L11.7956 12.9374L12.7084 12.6948ZM12.8809 12.9199L12.4105 13.7389L12.4087 13.7378L12.8809 12.9199ZM13.6589 12.711L12.8398 12.2408L12.8411 12.2386L13.6589 12.711ZM14.6701 10.9604L13.8522 10.488L13.8528 10.487L14.6701 10.9604ZM14.9698 10.8365L14.7254 11.7488L14.723 11.7482L14.9698 10.8365ZM15.604 17.0969L15.5541 18.0401L15.5419 18.0393L15.604 17.0969ZM15.9696 16.9606L16.6374 17.6284L16.6368 17.629L15.9696 16.9606ZM16.6398 13.029H17.5842V13.029L16.6398 13.029ZM16.6396 17.4464H15.6952V17.4464L16.6396 17.4464ZM17.442 17.779L18.1104 18.4462L18.1092 18.4475L17.442 17.779ZM18.1122 13.029H19.0566V13.029L18.1122 13.029ZM18.112 16.5869H17.1676V16.5869L18.112 16.5869ZM18.9146 16.9602L19.5817 17.6287L19.5811 17.6293L18.9146 16.9602ZM19.5847 13.0288H20.5292V13.0289L19.5847 13.0288ZM19.5844 15.7457H18.64V15.7455L19.5844 15.7457ZM20.3863 16.0784L21.0541 16.7462L21.0535 16.7469L20.3863 16.0784ZM20.5236 15.7457H19.5792V15.7456L20.5236 15.7457ZM20.5238 10.2388H21.4682V10.2388L20.5238 10.2388ZM17.4934 6.90785V7.85229H16.2413L16.5853 6.64839L17.4934 6.90785ZM20.054 17.6928C19.7063 17.6928 19.3958 17.5965 19.1381 17.4583L20.0307 15.7937C20.0429 15.8002 20.0507 15.8027 20.0538 15.8035C20.0564 15.8042 20.056 15.8039 20.054 15.8039V17.6928ZM20.5289 16.626V16.628H18.64V16.626H20.5289ZM20.5289 16.628C20.5289 17.146 20.3256 17.639 19.9578 18.0058L18.6239 16.6684C18.6307 16.6617 18.634 16.6559 18.636 16.6512C18.6379 16.6464 18.64 16.6392 18.64 16.628H20.5289ZM19.9587 18.0049C19.5922 18.3714 19.1001 18.5751 18.5818 18.5751V16.6862C18.5926 16.6862 18.5998 16.6842 18.6046 16.6822C18.6094 16.6802 18.6157 16.6766 18.6231 16.6693L19.9587 18.0049ZM18.5818 18.5751C18.2295 18.5751 17.9151 18.4765 17.6545 18.3346L18.5579 16.6757C18.5701 16.6824 18.5779 16.685 18.581 16.6858C18.5837 16.6865 18.5835 16.6862 18.5818 16.6862V18.5751ZM19.049 17.5603C19.0218 18.0251 18.8332 18.476 18.4868 18.8228L17.1505 17.4878C17.154 17.4843 17.156 17.4812 17.1577 17.4773C17.1596 17.4731 17.1625 17.4644 17.1633 17.45L19.049 17.5603ZM18.4865 18.8231C18.1199 19.1897 17.6278 19.3933 17.1094 19.3933V17.5044C17.1204 17.5044 17.1275 17.5024 17.1324 17.5004C17.1372 17.4984 17.1434 17.4949 17.1508 17.4875L18.4865 18.8231ZM17.1094 19.3933C16.0667 19.3933 15.23 18.575 15.1698 17.561L17.0554 17.449C17.0563 17.465 17.0629 17.4791 17.0745 17.4902C17.0802 17.4956 17.0859 17.4991 17.0909 17.5011C17.0953 17.5029 17.1009 17.5044 17.1094 17.5044V19.3933ZM16.5616 18.3358C16.2566 18.5007 15.8949 18.5958 15.5085 18.571L15.6296 16.686C15.6296 16.686 15.6316 16.6862 15.6366 16.685C15.6419 16.6838 15.6512 16.6808 15.6635 16.6741L16.5616 18.3358ZM15.5072 18.5709C14.4586 18.5021 13.6899 17.6103 13.6899 16.5971H15.5788C15.5788 16.6291 15.5904 16.6536 15.6049 16.6697C15.6191 16.6853 15.6287 16.6859 15.6308 16.686L15.5072 18.5709ZM13.6899 16.5971V12.0874H15.5788V16.5971H13.6899ZM15.4523 12.5596L14.9388 13.4492L13.3028 12.5049L13.8164 11.6153L15.4523 12.5596ZM14.9396 13.4477C14.5747 14.0826 13.8954 14.473 13.1649 14.473V12.5841C13.2228 12.5841 13.2758 12.552 13.302 12.5064L14.9396 13.4477ZM13.1649 14.473C12.8078 14.473 12.4562 14.3794 12.1455 14.2014L13.0846 12.5624C13.11 12.577 13.1379 12.5841 13.1649 12.5841V14.473ZM12.1414 14.199C11.7173 13.9531 11.4087 13.5531 11.2814 13.0766L13.1063 12.5891C13.1054 12.5858 13.103 12.5801 13.0985 12.5742C13.094 12.5683 13.0898 12.5655 13.0887 12.5648L12.1414 14.199ZM11.2817 13.0777C11.1539 12.6016 11.2208 12.0994 11.4673 11.6737L13.1019 12.6202C13.1033 12.6179 13.1056 12.6125 13.1066 12.6048C13.1077 12.5972 13.1068 12.5911 13.106 12.588L11.2817 13.0777ZM12.2846 11.2025C11.8213 11.3239 11.4746 11.6614 11.472 11.6657C11.4711 11.6672 11.4698 11.6694 11.4694 11.6701C11.4692 11.6705 11.4688 11.6711 11.4686 11.6714C11.4686 11.6715 11.4684 11.6718 11.4683 11.6719C11.4682 11.6721 11.4682 11.6721 11.4686 11.6714C11.4692 11.6703 11.4703 11.6685 11.4719 11.6658C11.475 11.6604 11.4797 11.6523 11.4858 11.6417C11.4981 11.6204 11.5162 11.5891 11.5392 11.5492C11.5854 11.4693 11.6514 11.355 11.731 11.2173C11.8901 10.9418 12.1033 10.5725 12.3197 10.1977C12.7532 9.44687 13.1976 8.67689 13.248 8.58911L14.8865 9.52883C14.8344 9.61976 14.3876 10.3938 13.9555 11.1422C13.739 11.5171 13.5258 11.8863 13.3667 12.1619C13.2871 12.2997 13.221 12.414 13.1749 12.494C13.1518 12.534 13.1336 12.5653 13.1213 12.5868C13.1151 12.5975 13.1103 12.6058 13.107 12.6114C13.1054 12.6142 13.104 12.6165 13.1031 12.6182C13.1026 12.619 13.102 12.62 13.1015 12.6209C13.1013 12.6213 13.1007 12.6223 13.1 12.6236C13.0995 12.6243 13.0982 12.6266 13.0973 12.6281C13.0947 12.6325 12.7479 12.9699 12.2846 13.0914V11.2025ZM13.2071 8.66896C13.2175 8.64603 13.2504 8.57211 13.2807 8.50398L15.0067 9.27152C14.9779 9.33624 14.9414 9.41817 14.9274 9.44898L13.2071 8.66896ZM13.2807 8.50397C13.2939 8.47445 13.3084 8.43674 13.3291 8.37824L15.1094 9.00943C15.0838 9.08177 15.0499 9.17422 15.0066 9.27153L13.2807 8.50397ZM13.329 8.3785C13.9687 6.57262 15.5788 5.43058 17.4934 5.43058V7.31947C16.3821 7.31947 15.4831 7.9544 15.1095 9.00917L13.329 8.3785ZM17.4934 5.43058C20.0502 5.43058 22.0009 7.66012 22.0009 10.2387H20.112C20.112 8.55637 18.8659 7.31947 17.4934 7.31947V5.43058ZM22.0009 10.2387L22.001 15.7455L20.1122 15.7456L20.112 10.2387L22.0009 10.2387ZM22.001 15.7455C22.001 16.2634 21.7978 16.7553 21.4318 17.122L20.0949 15.7876C20.1024 15.7801 20.1061 15.7737 20.1081 15.7688C20.1102 15.7638 20.1122 15.7565 20.1122 15.7455H22.001ZM21.4312 17.1226C21.0646 17.4892 20.5724 17.6928 20.054 17.6928V15.8039C20.0651 15.8039 20.0723 15.8019 20.0772 15.7999C20.082 15.7979 20.0882 15.7943 20.0956 15.787L21.4312 17.1226ZM19.559 15.944L19.559 15.944L20.549 17.5527L20.549 17.5527L19.559 15.944ZM17.4934 7.85224C16.5954 7.85224 15.9145 8.33259 15.6117 9.18739L13.8312 8.55663C14.3998 6.95159 15.7913 5.96335 17.4934 5.96335V7.85224ZM15.611 9.18942C15.5812 9.27297 15.5424 9.37848 15.4935 9.48841L13.7679 8.7202C13.7867 8.67794 13.806 8.62725 13.832 8.5546L15.611 9.18942ZM15.4933 9.48891C15.45 9.58591 15.4138 9.66783 15.386 9.72332C15.3688 9.75776 15.341 9.81083 15.3006 9.86962C15.2596 9.92919 15.2192 9.97411 15.2159 9.97788L13.7935 8.73505C13.7957 8.73252 13.795 8.73334 13.7938 8.73464C13.7924 8.73632 13.7887 8.74059 13.7839 8.74647C13.7789 8.75255 13.7726 8.7604 13.7656 8.76974C13.7584 8.77916 13.7511 8.78919 13.7439 8.79976C13.7291 8.82129 13.7177 8.84015 13.7096 8.85441C13.702 8.86773 13.6974 8.87694 13.6964 8.87902C13.6953 8.88116 13.696 8.8799 13.6992 8.87303C13.7023 8.86637 13.7067 8.85678 13.713 8.84282C13.7193 8.82899 13.7268 8.81228 13.736 8.79163C13.7452 8.77102 13.7557 8.74739 13.7681 8.7197L15.4933 9.48891ZM13.8874 10.0712L13.8837 10.0681L15.1183 8.63852L15.122 8.64169L13.8874 10.0712ZM15.3355 9.79555C15.1877 10.0745 14.7657 10.8048 13.5638 12.8859L11.9281 11.9412C13.1469 9.8309 13.54 9.1498 13.6665 8.91103L15.3355 9.79555ZM13.5634 12.8866C13.6389 12.756 13.66 12.5984 13.6211 12.4522L11.7956 12.9374C11.706 12.6002 11.7534 12.243 11.9285 11.9406L13.5634 12.8866ZM13.6203 12.4492C13.5815 12.3049 13.486 12.1787 13.3531 12.102L12.4087 13.7378C12.1053 13.5627 11.8867 13.2756 11.7964 12.9403L13.6203 12.4492ZM13.3513 12.1009C13.2438 12.0392 13.1393 12.0396 13.0671 12.059C12.9952 12.0784 12.9029 12.1309 12.8398 12.2408L14.478 13.1811C14.0664 13.8983 13.1258 14.1497 12.4105 13.7389L13.3513 12.1009ZM12.8411 12.2386L13.8522 10.488L15.4879 11.4327L14.4768 13.1833L12.8411 12.2386ZM13.8528 10.487C14.1256 10.016 14.6824 9.78032 15.2165 9.92489L14.723 11.7482C15.0229 11.8293 15.3354 11.6961 15.4873 11.4337L13.8528 10.487ZM15.2142 9.92426C15.744 10.0662 16.1117 10.5464 16.1117 11.0939H14.2228C14.2228 11.4004 14.4285 11.6693 14.7254 11.7488L15.2142 9.92426ZM16.1117 11.0939V16.5973H14.2228V11.0939H16.1117ZM16.1117 16.5973C16.1117 16.4897 16.0718 16.3918 16.0063 16.3169C15.941 16.2422 15.8257 16.165 15.666 16.1545L15.5419 18.0393C14.7469 17.987 14.2228 17.2944 14.2228 16.5973H16.1117ZM15.6538 16.1538C15.5422 16.1479 15.4059 16.1887 15.3023 16.2922L16.6368 17.629C16.3386 17.9266 15.9433 18.0606 15.5541 18.04L15.6538 16.1538ZM15.3018 16.2927C15.2121 16.3824 15.1623 16.5052 15.1623 16.6283H17.0512C17.0512 17.0034 16.9039 17.3619 16.6374 17.6284L15.3018 16.2927ZM15.1623 16.6283V13.029H17.0512V16.6283H15.1623ZM15.1623 13.029C15.1623 12.3602 15.7045 11.818 16.3733 11.818V13.7069C16.7477 13.7069 17.0512 13.4034 17.0512 13.029H15.1623ZM16.3733 11.818C17.0417 11.818 17.5842 12.3597 17.5842 13.029H15.6953C15.6953 13.4036 15.9992 13.7069 16.3733 13.7069V11.818ZM17.5842 13.029L17.5841 17.4465L15.6952 17.4464L15.6953 13.029L17.5842 13.029ZM17.5841 17.4464C17.5841 17.1838 17.372 16.9717 17.1094 16.9717V18.8606C16.3288 18.8606 15.6952 18.227 15.6952 17.4464H17.5841ZM17.1094 16.9717C16.9865 16.9717 16.8643 17.0213 16.7748 17.1105L18.1092 18.4475C17.8425 18.7137 17.484 18.8606 17.1094 18.8606V16.9717ZM16.7735 17.1118C16.6842 17.2013 16.6347 17.3235 16.6347 17.4464H18.5236C18.5236 17.821 18.3766 18.1795 18.1104 18.4462L16.7735 17.1118ZM16.6347 17.4464V13.029H18.5236V17.4464H16.6347ZM16.6347 13.029C16.6347 12.3606 17.1763 11.818 17.8457 11.818V13.7069C18.2203 13.7069 18.5236 13.403 18.5236 13.029H16.6347ZM17.8457 11.818C18.5141 11.818 19.0566 12.3596 19.0566 13.029H17.1677C17.1677 13.4036 17.4716 13.7069 17.8457 13.7069V11.818ZM19.0566 13.029L19.0565 16.5869L17.1676 16.5869L17.1677 13.0289L19.0566 13.029ZM19.0565 16.5869V16.6283H17.1676V16.5869H19.0565ZM19.0565 16.6283C19.0565 16.3651 18.8439 16.1534 18.582 16.1534V18.0423C17.8016 18.0423 17.1676 17.4092 17.1676 16.6283H19.0565ZM18.582 16.1534C18.4565 16.1534 18.335 16.2045 18.248 16.2911L19.5811 17.6293C19.3159 17.8935 18.9588 18.0423 18.582 18.0423V16.1534ZM18.2474 16.2918C18.157 16.3819 18.1073 16.5051 18.1073 16.6281H19.9962C19.9962 17.0031 19.849 17.3619 19.5817 17.6287L18.2474 16.2918ZM18.1073 16.6281V13.0288H19.9962V16.6281H18.1073ZM18.1073 13.0288C18.1073 12.3604 18.6489 11.8179 19.3182 11.8179V13.7067C19.6929 13.7067 19.9962 13.4028 19.9962 13.0288H18.1073ZM19.3182 11.8179C19.9866 11.8179 20.5292 12.3595 20.5292 13.0288H18.6403C18.6403 13.4034 18.9442 13.7067 19.3182 13.7067V11.8179ZM20.5292 13.0289L20.5289 15.7458L18.64 15.7455L18.6403 13.0287L20.5292 13.0289ZM20.5289 15.7457C20.5289 15.4837 20.3172 15.2711 20.054 15.2711V17.16C19.2731 17.16 18.64 16.526 18.64 15.7457H20.5289ZM20.054 15.2711C19.9301 15.2711 19.8079 15.3213 19.7191 15.41L21.0535 16.7469C20.7877 17.0121 20.4299 17.16 20.054 17.16V15.2711ZM19.7184 15.4106C19.6285 15.5005 19.5792 15.6233 19.5792 15.7457H21.4681C21.4681 16.1197 21.3216 16.4787 21.0541 16.7462L19.7184 15.4106ZM19.5792 15.7456L19.5793 10.2388L21.4682 10.2388L21.4681 15.7457L19.5792 15.7456ZM19.5793 10.2388C19.5793 8.83783 18.5607 7.85229 17.4934 7.85229V5.9634C19.7681 5.9634 21.4682 7.96677 21.4682 10.2388H19.5793ZM16.5853 6.64839L16.5853 6.64833L18.4015 7.16725L18.4015 7.16731L16.5853 6.64839Z" fill="#4CAF4F" mask="url(#path-1-inside-1_211_2338)"/>
<path d="M8.4733 18.5678L8.42063 18.54C8.40814 18.5625 8.37309 18.6255 8.32125 18.7189C8.33966 18.7281 8.35831 18.7357 8.3769 18.7427C8.4086 18.6856 8.44038 18.6271 8.4733 18.5678Z" fill="#4CAF4F" stroke="#4CAF4F" stroke-width="0.928093"/>
<mask id="path-4-inside-2_211_2338" fill="white">
<path d="M28.0628 25.9659C27.5709 26.7861 26.7621 27.3475 25.785 27.5471C24.8166 27.7445 23.7981 27.5625 22.9166 27.0339L18.1942 24.201C17.9644 24.0631 17.8018 23.8442 17.7367 23.5842C17.6722 23.3247 17.7125 23.0551 17.8502 22.8255C17.9362 22.682 18.0566 22.5688 18.1963 22.4852L18.195 22.4844C17.9652 22.3466 17.8027 22.1276 17.7379 21.8679C17.6728 21.6083 17.7132 21.3386 17.8511 21.1086C17.9398 20.9609 18.0615 20.8455 18.2003 20.7635C17.9987 20.6248 17.8536 20.4234 17.7938 20.1844C17.7287 19.9246 17.7691 19.6551 17.907 19.4254C18.0446 19.1956 18.2638 19.0333 18.5234 18.9684C18.6045 18.948 18.6868 18.938 18.7683 18.938C18.9281 18.9381 19.085 18.9787 19.2292 19.0541C19.238 18.8674 19.2936 18.684 19.4027 18.5266C19.702 18.0949 20.3014 17.9754 20.7683 18.2556L24.6355 20.5752L24.137 19.6774C23.9458 19.3346 23.9528 18.9118 24.1556 18.5736C24.2544 18.4091 24.3955 18.2724 24.5642 18.1778C24.7029 18.101 24.8531 18.0647 25.0013 18.0647C25.3195 18.0648 25.6286 18.2327 25.7931 18.5299C26.3666 19.5631 27.4486 21.5116 27.5247 21.6477C27.5409 21.6712 27.5898 21.7413 27.6317 21.8008C27.6715 21.8574 27.7146 21.9115 27.7592 21.9652C28.7248 23.1357 28.8412 24.6685 28.0627 25.9659L28.0628 25.9659ZM27.348 22.3049C27.2949 22.2406 27.2429 22.175 27.1955 22.1074C27.0513 21.9028 27.0476 21.8975 27.0368 21.8439C26.8682 21.5651 26.4571 20.8248 25.3268 18.7885C25.2276 18.6097 25.0023 18.5445 24.8229 18.6436C24.7347 18.693 24.6637 18.7619 24.612 18.8482C24.5072 19.0229 24.5032 19.2412 24.6022 19.4185L25.5831 21.1859C25.6417 21.2914 25.6221 21.4229 25.5355 21.5067C25.4491 21.5906 25.3169 21.6053 25.2131 21.5435L20.4941 18.7125C20.2716 18.5792 19.9784 18.6314 19.8409 18.83C19.7618 18.9442 19.7366 19.0803 19.7696 19.2133C19.8 19.3348 19.8763 19.4373 19.9842 19.5021C19.9846 19.5022 19.9847 19.5026 19.9851 19.5027L23.0706 21.3538C23.1967 21.4295 23.2376 21.5931 23.1619 21.7194C23.0861 21.8454 22.9227 21.8866 22.7962 21.8107L19.0082 19.5383C18.9007 19.4739 18.7742 19.4548 18.6527 19.4854C18.5309 19.5157 18.4284 19.5918 18.3638 19.6998C18.2991 19.8075 18.2804 19.9338 18.3104 20.0553C18.3408 20.1768 18.4171 20.2794 18.5249 20.3441L19.262 20.7862L22.3128 22.6166C22.4389 22.6924 22.4798 22.8559 22.404 22.9822C22.3283 23.1082 22.1649 23.1493 22.0384 23.0735L18.9523 21.222C18.7303 21.0885 18.4413 21.1609 18.3078 21.3832C18.243 21.491 18.2243 21.6173 18.2544 21.7388C18.2847 21.8603 18.361 21.9627 18.469 22.0277L19.2256 22.4816L21.5551 23.8792C21.6813 23.955 21.7222 24.1185 21.6464 24.2449C21.5706 24.3709 21.4073 24.4122 21.2808 24.3361L18.9513 22.9385C18.8438 22.8741 18.7178 22.8551 18.5956 22.8856C18.4742 22.916 18.3714 22.9921 18.3068 23.0997C18.2422 23.2075 18.2233 23.334 18.2534 23.4553C18.2837 23.5768 18.36 23.6793 18.468 23.7442L23.1904 26.5772C23.9568 27.0369 24.8406 27.1961 25.678 27.0252C26.5067 26.856 27.1913 26.3826 27.6055 25.692C28.2748 24.5769 28.1785 23.3106 27.3483 22.3048L27.348 22.3049Z"/>
</mask>
<path d="M28.0628 25.9659C27.5709 26.7861 26.7621 27.3475 25.785 27.5471C24.8166 27.7445 23.7981 27.5625 22.9166 27.0339L18.1942 24.201C17.9644 24.0631 17.8018 23.8442 17.7367 23.5842C17.6722 23.3247 17.7125 23.0551 17.8502 22.8255C17.9362 22.682 18.0566 22.5688 18.1963 22.4852L18.195 22.4844C17.9652 22.3466 17.8027 22.1276 17.7379 21.8679C17.6728 21.6083 17.7132 21.3386 17.8511 21.1086C17.9398 20.9609 18.0615 20.8455 18.2003 20.7635C17.9987 20.6248 17.8536 20.4234 17.7938 20.1844C17.7287 19.9246 17.7691 19.6551 17.907 19.4254C18.0446 19.1956 18.2638 19.0333 18.5234 18.9684C18.6045 18.948 18.6868 18.938 18.7683 18.938C18.9281 18.9381 19.085 18.9787 19.2292 19.0541C19.238 18.8674 19.2936 18.684 19.4027 18.5266C19.702 18.0949 20.3014 17.9754 20.7683 18.2556L24.6355 20.5752L24.137 19.6774C23.9458 19.3346 23.9528 18.9118 24.1556 18.5736C24.2544 18.4091 24.3955 18.2724 24.5642 18.1778C24.7029 18.101 24.8531 18.0647 25.0013 18.0647C25.3195 18.0648 25.6286 18.2327 25.7931 18.5299C26.3666 19.5631 27.4486 21.5116 27.5247 21.6477C27.5409 21.6712 27.5898 21.7413 27.6317 21.8008C27.6715 21.8574 27.7146 21.9115 27.7592 21.9652C28.7248 23.1357 28.8412 24.6685 28.0627 25.9659L28.0628 25.9659ZM27.348 22.3049C27.2949 22.2406 27.2429 22.175 27.1955 22.1074C27.0513 21.9028 27.0476 21.8975 27.0368 21.8439C26.8682 21.5651 26.4571 20.8248 25.3268 18.7885C25.2276 18.6097 25.0023 18.5445 24.8229 18.6436C24.7347 18.693 24.6637 18.7619 24.612 18.8482C24.5072 19.0229 24.5032 19.2412 24.6022 19.4185L25.5831 21.1859C25.6417 21.2914 25.6221 21.4229 25.5355 21.5067C25.4491 21.5906 25.3169 21.6053 25.2131 21.5435L20.4941 18.7125C20.2716 18.5792 19.9784 18.6314 19.8409 18.83C19.7618 18.9442 19.7366 19.0803 19.7696 19.2133C19.8 19.3348 19.8763 19.4373 19.9842 19.5021C19.9846 19.5022 19.9847 19.5026 19.9851 19.5027L23.0706 21.3538C23.1967 21.4295 23.2376 21.5931 23.1619 21.7194C23.0861 21.8454 22.9227 21.8866 22.7962 21.8107L19.0082 19.5383C18.9007 19.4739 18.7742 19.4548 18.6527 19.4854C18.5309 19.5157 18.4284 19.5918 18.3638 19.6998C18.2991 19.8075 18.2804 19.9338 18.3104 20.0553C18.3408 20.1768 18.4171 20.2794 18.5249 20.3441L19.262 20.7862L22.3128 22.6166C22.4389 22.6924 22.4798 22.8559 22.404 22.9822C22.3283 23.1082 22.1649 23.1493 22.0384 23.0735L18.9523 21.222C18.7303 21.0885 18.4413 21.1609 18.3078 21.3832C18.243 21.491 18.2243 21.6173 18.2544 21.7388C18.2847 21.8603 18.361 21.9627 18.469 22.0277L19.2256 22.4816L21.5551 23.8792C21.6813 23.955 21.7222 24.1185 21.6464 24.2449C21.5706 24.3709 21.4073 24.4122 21.2808 24.3361L18.9513 22.9385C18.8438 22.8741 18.7178 22.8551 18.5956 22.8856C18.4742 22.916 18.3714 22.9921 18.3068 23.0997C18.2422 23.2075 18.2233 23.334 18.2534 23.4553C18.2837 23.5768 18.36 23.6793 18.468 23.7442L23.1904 26.5772C23.9568 27.0369 24.8406 27.1961 25.678 27.0252C26.5067 26.856 27.1913 26.3826 27.6055 25.692C28.2748 24.5769 28.1785 23.3106 27.3483 22.3048L27.348 22.3049Z" fill="#4CAF4F"/>
<path d="M28.0628 25.9659L27.758 25.072L30.1989 24.2398L28.8727 26.4516L28.0628 25.9659ZM25.785 27.5471L25.974 28.4724L25.9737 28.4725L25.785 27.5471ZM22.9166 27.0339L22.431 27.8439L22.4308 27.8438L22.9166 27.0339ZM18.1942 24.201L18.68 23.3911L18.68 23.3911L18.1942 24.201ZM17.7367 23.5842L16.8206 23.8135L16.8202 23.8122L17.7367 23.5842ZM17.8502 22.8255L18.6605 23.3107L18.6602 23.3112L17.8502 22.8255ZM18.1963 22.4852L18.6969 21.6843L20.0062 22.5027L18.6814 23.2956L18.1963 22.4852ZM18.195 22.4844L18.6808 21.6745L18.6882 21.6789L18.6955 21.6835L18.195 22.4844ZM17.7379 21.8679L18.654 21.6383L18.6543 21.6395L17.7379 21.8679ZM17.8511 21.1086L17.041 20.623L17.0416 20.622L17.8511 21.1086ZM18.2003 20.7635L18.7356 19.9854L19.9554 20.8245L18.6803 21.5769L18.2003 20.7635ZM17.7938 20.1844L18.71 19.955L18.7101 19.9554L17.7938 20.1844ZM17.907 19.4254L18.7171 19.9108L18.7167 19.9115L17.907 19.4254ZM18.5234 18.9684L18.7534 19.8844L18.7525 19.8846L18.5234 18.9684ZM18.7683 18.938V17.9935L18.7692 17.9935L18.7683 18.938ZM19.2292 19.0541L20.1726 19.0988L20.1026 20.577L18.7914 19.891L19.2292 19.0541ZM19.4027 18.5266L20.179 19.0646L20.1788 19.0648L19.4027 18.5266ZM20.7683 18.2556L20.2825 19.0655L20.2824 19.0654L20.7683 18.2556ZM24.6355 20.5752L25.4612 20.1168L27.1719 23.198L24.1497 21.3852L24.6355 20.5752ZM24.137 19.6774L24.9618 19.2172L24.9628 19.219L24.137 19.6774ZM24.1556 18.5736L23.3456 18.0879L23.3458 18.0875L24.1556 18.5736ZM24.5642 18.1778L24.1023 17.3541L24.1068 17.3515L24.5642 18.1778ZM25.0013 18.0647V17.1202L25.0018 17.1202L25.0013 18.0647ZM25.7931 18.5299L24.9673 18.9883L24.9668 18.9873L25.7931 18.5299ZM27.5247 21.6477L26.7466 22.1829L26.7218 22.1469L26.7004 22.1087L27.5247 21.6477ZM27.6317 21.8008L26.8598 22.345L26.8591 22.3441L27.6317 21.8008ZM27.7592 21.9652L28.4862 21.3624L28.4877 21.3642L27.7592 21.9652ZM28.0627 25.9659L28.3675 26.8598L25.9253 27.6924L27.2529 25.48L28.0627 25.9659ZM27.348 22.3049L27.4416 23.2447L26.9405 23.2945L26.6198 22.9063L27.348 22.3049ZM27.1955 22.1074L27.9675 21.5634L27.9687 21.5652L27.1955 22.1074ZM27.0368 21.8439L27.8451 21.3554L27.9299 21.4957L27.9624 21.6565L27.0368 21.8439ZM25.3268 18.7885L24.501 19.2468L24.5008 19.2465L25.3268 18.7885ZM24.8229 18.6436L24.3618 17.8194L24.3662 17.817L24.8229 18.6436ZM24.612 18.8482L25.422 19.3339L25.4219 19.334L24.612 18.8482ZM24.6022 19.4185L25.4268 18.958L25.4279 18.9602L24.6022 19.4185ZM25.5831 21.1859L24.7574 21.6445L24.7573 21.6442L25.5831 21.1859ZM25.5355 21.5067L24.8776 20.8291L24.8789 20.8278L25.5355 21.5067ZM25.2131 21.5435L24.7303 22.3552L24.7273 22.3534L25.2131 21.5435ZM20.4941 18.7125L20.9796 17.9025L20.9799 17.9026L20.4941 18.7125ZM19.8409 18.83L20.6173 19.3677L20.6172 19.368L19.8409 18.83ZM19.7696 19.2133L18.8534 19.4424L18.8531 19.441L19.7696 19.2133ZM19.9842 19.5021L19.5618 20.3467L19.5295 20.3306L19.4985 20.312L19.9842 19.5021ZM19.9851 19.5027L20.4075 18.658L20.4399 18.6742L20.4709 18.6928L19.9851 19.5027ZM23.0706 21.3538L23.5564 20.5439L23.5568 20.5441L23.0706 21.3538ZM23.1619 21.7194L23.9718 22.2052L23.9712 22.2061L23.1619 21.7194ZM22.7962 21.8107L23.2821 21.0008L23.2823 21.0009L22.7962 21.8107ZM19.0082 19.5383L19.4937 18.7282L19.494 18.7284L19.0082 19.5383ZM18.6527 19.4854L18.8829 20.4013L18.8812 20.4018L18.6527 19.4854ZM18.3638 19.6998L19.1744 20.1846L19.1731 20.1866L18.3638 19.6998ZM18.3104 20.0553L17.3942 20.2843L17.3936 20.282L18.3104 20.0553ZM18.5249 20.3441L18.0391 21.1541L18.0386 21.1538L18.5249 20.3441ZM19.262 20.7862L19.7478 19.9763L19.7479 19.9764L19.262 20.7862ZM22.3128 22.6166L22.7987 21.8067L22.799 21.8069L22.3128 22.6166ZM22.404 22.9822L23.214 23.468L23.2134 23.4689L22.404 22.9822ZM22.0384 23.0735L21.5531 23.8837L21.5525 23.8834L22.0384 23.0735ZM18.9523 21.222L18.4664 22.0318L18.4655 22.0313L18.9523 21.222ZM18.3078 21.3832L19.1174 21.8694L19.1174 21.8694L18.3078 21.3832ZM18.2544 21.7388L17.3381 21.9679L17.3375 21.9655L18.2544 21.7388ZM18.469 22.0277L17.9831 22.8376L17.9823 22.8371L18.469 22.0277ZM19.2256 22.4816L19.7115 21.6717L19.7115 21.6717L19.2256 22.4816ZM21.5551 23.8792L22.041 23.0694L22.0413 23.0696L21.5551 23.8792ZM21.6464 24.2449L22.4563 24.7306L22.4558 24.7316L21.6464 24.2449ZM21.2808 24.3361L21.7667 23.5263L21.7676 23.5269L21.2808 24.3361ZM18.9513 22.9385L19.4368 22.1284L19.4372 22.1286L18.9513 22.9385ZM18.5956 22.8856L18.3666 21.9694L18.3666 21.9694L18.5956 22.8856ZM18.3068 23.0997L17.4966 22.6143L17.4969 22.6138L18.3068 23.0997ZM18.2534 23.4553L17.3371 23.6844L17.3366 23.6823L18.2534 23.4553ZM18.468 23.7442L17.9821 24.5541L17.9813 24.5536L18.468 23.7442ZM23.1904 26.5772L23.6763 25.7673L23.6763 25.7673L23.1904 26.5772ZM25.678 27.0252L25.8669 27.9506L25.8668 27.9506L25.678 27.0252ZM27.6055 25.692L26.7955 25.2062L26.7957 25.2059L27.6055 25.692ZM27.3483 22.3048L27.2547 21.365L27.756 21.3151L28.0767 21.7036L27.3483 22.3048ZM28.8727 26.4516C28.2382 27.5098 27.1979 28.2224 25.974 28.4724L25.596 26.6218C26.3262 26.4726 26.9036 26.0625 27.2528 25.4802L28.8727 26.4516ZM25.9737 28.4725C24.7641 28.7191 23.5061 28.4886 22.431 27.8439L23.4023 26.2239C24.0901 26.6363 24.869 26.77 25.5963 26.6217L25.9737 28.4725ZM22.4308 27.8438L17.7083 25.0109L18.68 23.3911L23.4025 26.224L22.4308 27.8438ZM17.7083 25.0109C17.2642 24.7445 16.9466 24.3169 16.8206 23.8135L18.6529 23.3548C18.6555 23.3651 18.659 23.3714 18.6622 23.3757C18.6654 23.38 18.6706 23.3854 18.68 23.3911L17.7083 25.0109ZM16.8202 23.8122C16.6951 23.3095 16.7743 22.7834 17.0402 22.3399L18.6602 23.3112C18.6546 23.3206 18.6525 23.328 18.6517 23.3334C18.6509 23.3388 18.6507 23.3461 18.6532 23.3561L16.8202 23.8122ZM17.0399 22.3403C17.2151 22.0478 17.4544 21.8286 17.7113 21.6749L18.6814 23.2956C18.6699 23.3025 18.6638 23.3078 18.6613 23.3102C18.6591 23.3124 18.6594 23.3125 18.6605 23.3107L17.0399 22.3403ZM17.6958 23.2861L17.6944 23.2853L18.6955 21.6835L18.6969 21.6843L17.6958 23.2861ZM17.7092 23.2943C17.2652 23.028 16.9472 22.6004 16.8215 22.0964L18.6543 21.6395C18.6567 21.6491 18.6601 21.6551 18.6631 21.6592C18.6662 21.6634 18.6714 21.6688 18.6808 21.6745L17.7092 23.2943ZM16.8218 22.0975C16.6955 21.5937 16.775 21.0668 17.041 20.623L18.6611 21.5942C18.6553 21.6039 18.6533 21.6113 18.6525 21.6165C18.6517 21.6217 18.6516 21.6287 18.654 21.6383L16.8218 22.0975ZM17.0416 20.622C17.216 20.332 17.4542 20.1072 17.7204 19.9501L18.6803 21.5769C18.6742 21.5805 18.67 21.5839 18.6673 21.5866C18.6647 21.5892 18.6625 21.5918 18.6605 21.5952L17.0416 20.622ZM17.6651 21.5416C17.2836 21.2792 16.996 20.887 16.8776 20.4135L18.7101 19.9554C18.7112 19.9598 18.7127 19.963 18.7151 19.9664C18.7178 19.9702 18.7237 19.9772 18.7356 19.9854L17.6651 21.5416ZM16.8777 20.4139C16.7515 19.9101 16.8307 19.3833 17.0972 18.9394L18.7167 19.9115C18.7111 19.9209 18.7091 19.928 18.7084 19.933C18.7076 19.9381 18.7075 19.9451 18.71 19.955L16.8777 20.4139ZM17.0968 18.94C17.3634 18.4951 17.7916 18.1778 18.2944 18.0521L18.7525 19.8846C18.7424 19.8871 18.7361 19.8906 18.7319 19.8938C18.7277 19.8969 18.7225 19.9019 18.7171 19.9108L17.0968 18.94ZM18.2935 18.0523C18.4499 18.0131 18.6095 17.9935 18.7683 17.9935V19.8824C18.7642 19.8824 18.7591 19.8829 18.7534 19.8844L18.2935 18.0523ZM18.7692 17.9935C19.0901 17.9939 19.396 18.0755 19.667 18.2173L18.7914 19.891C18.7824 19.8863 18.776 19.8842 18.7724 19.8833C18.7689 19.8824 18.7674 19.8824 18.7673 19.8824L18.7692 17.9935ZM18.2858 19.0095C18.3021 18.666 18.4056 18.3071 18.6266 17.9884L20.1788 19.0648C20.1816 19.0608 20.174 19.0688 20.1726 19.0988L18.2858 19.0095ZM18.6265 17.9886C19.2247 17.1255 20.3845 16.9239 21.2543 17.4457L20.2824 19.0654C20.2549 19.0489 20.2279 19.0463 20.2067 19.0505C20.186 19.0546 20.1804 19.0626 20.179 19.0646L18.6265 17.9886ZM21.2542 17.4457L25.1213 19.7653L24.1497 21.3852L20.2825 19.0655L21.2542 17.4457ZM23.8098 21.0337L23.3113 20.1358L24.9628 19.219L25.4612 20.1168L23.8098 21.0337ZM23.3123 20.1376C22.9555 19.4982 22.9698 18.7146 23.3456 18.0879L24.9655 19.0594C24.9358 19.1089 24.936 19.1711 24.9618 19.2172L23.3123 20.1376ZM23.3458 18.0875C23.53 17.7807 23.7917 17.5283 24.1023 17.3541L25.0262 19.0016C24.9994 19.0166 24.9787 19.0375 24.9653 19.0598L23.3458 18.0875ZM24.1068 17.3515C24.3894 17.1951 24.6976 17.1202 25.0013 17.1202V19.0091C25.0045 19.0091 25.0083 19.0087 25.0122 19.0077C25.0164 19.0066 25.0196 19.0052 25.0216 19.0041L24.1068 17.3515ZM25.0018 17.1202C25.6472 17.1206 26.281 17.4611 26.6194 18.0726L24.9668 18.9873C24.9683 18.99 24.9708 18.9936 24.9743 18.997C24.9776 19.0004 24.981 19.0029 24.984 19.0046C24.9894 19.0077 24.9947 19.0091 25.0008 19.0091L25.0018 17.1202ZM26.6189 18.0716C27.193 19.1061 28.2739 21.0524 28.349 21.1866L26.7004 22.1087C26.6233 21.9709 25.5401 20.0202 24.9673 18.9883L26.6189 18.0716ZM28.3028 21.1124C28.3161 21.1318 28.3628 21.1986 28.4042 21.2576L26.8591 22.3441C26.8168 22.2839 26.7656 22.2106 26.7466 22.1829L28.3028 21.1124ZM28.4036 21.2566C28.4231 21.2843 28.4486 21.317 28.4862 21.3624L27.0321 22.5681C26.9806 22.5059 26.92 22.4305 26.8598 22.345L28.4036 21.2566ZM28.4877 21.3642C29.7067 22.8419 29.8577 24.81 28.8726 26.4518L27.2529 25.48C27.8247 24.527 27.7428 23.4295 27.0306 22.5662L28.4877 21.3642ZM27.758 25.072L27.758 25.072L28.3675 26.8598L28.3675 26.8598L27.758 25.072ZM26.6198 22.9063C26.5602 22.834 26.4903 22.7467 26.4222 22.6497L27.9687 21.5652C27.9955 21.6033 28.0297 21.6472 28.0762 21.7034L26.6198 22.9063ZM26.4235 22.6515C26.364 22.5671 26.3001 22.4776 26.2577 22.4073C26.2293 22.3603 26.1914 22.2918 26.1593 22.2044C26.1281 22.1193 26.1142 22.0464 26.1111 22.0314L27.9624 21.6565C27.9648 21.6682 27.9555 21.6161 27.9325 21.5535C27.9087 21.4886 27.8826 21.4441 27.8746 21.4308C27.8707 21.4244 27.8692 21.4223 27.8722 21.4268C27.8751 21.4311 27.8801 21.4386 27.8886 21.4509C27.9062 21.4764 27.9304 21.5108 27.9675 21.5634L26.4235 22.6515ZM26.2285 22.3325C26.0481 22.0339 25.6234 21.2689 24.501 19.2468L26.1525 18.3301C27.2907 20.3807 27.6884 21.0962 27.8451 21.3554L26.2285 22.3325ZM24.5008 19.2465C24.6538 19.5223 25.0019 19.6238 25.2797 19.4703L24.3662 17.817C25.0028 17.4652 25.8015 17.6972 26.1527 18.3304L24.5008 19.2465ZM25.2841 19.4678C25.3396 19.4368 25.389 19.389 25.422 19.3339L23.802 18.3626C23.9385 18.1349 24.1297 17.9493 24.3618 17.8194L25.2841 19.4678ZM25.4219 19.334C25.4896 19.2213 25.4941 19.0787 25.4268 18.958L23.7775 19.8789C23.5123 19.4038 23.5249 18.8246 23.8021 18.3624L25.4219 19.334ZM25.4279 18.9602L26.4089 20.7276L24.7573 21.6442L23.7764 19.8768L25.4279 18.9602ZM26.4087 20.7274C26.6746 21.2061 26.5863 21.8042 26.1921 22.1855L24.8789 20.8278C24.658 21.0415 24.6087 21.3766 24.7574 21.6445L26.4087 20.7274ZM26.1935 22.1842C25.7961 22.57 25.1954 22.6319 24.7303 22.3552L25.696 20.7318C25.4385 20.5787 25.102 20.6111 24.8776 20.8291L26.1935 22.1842ZM24.7273 22.3534L20.0082 19.5224L20.9799 17.9026L25.699 20.7336L24.7273 22.3534ZM20.0085 19.5226C20.1006 19.5778 20.2047 19.5939 20.3024 19.5764C20.4 19.5589 20.5259 19.4997 20.6173 19.3677L19.0645 18.2923C19.5191 17.6358 20.3834 17.5451 20.9796 17.9025L20.0085 19.5226ZM20.6172 19.368C20.6909 19.2616 20.7194 19.1193 20.6862 18.9857L18.8531 19.441C18.7538 19.0414 18.8327 18.6268 19.0646 18.2921L20.6172 19.368ZM20.6859 18.9843C20.655 18.8606 20.575 18.7551 20.47 18.6921L19.4985 20.312C19.1775 20.1195 18.9451 19.8091 18.8534 19.4424L20.6859 18.9843ZM20.4067 18.6574C20.492 18.7 20.5548 18.7476 20.5945 18.7812C20.6141 18.7978 20.6292 18.8119 20.6383 18.8207C20.643 18.8251 20.6467 18.8288 20.6489 18.831C20.6501 18.8321 20.651 18.8331 20.6516 18.8336C20.6518 18.8339 20.6521 18.8342 20.6522 18.8343C20.6523 18.8344 20.6524 18.8344 20.6524 18.8345C20.6524 18.8345 20.6524 18.8345 20.6524 18.8345C20.6524 18.8345 20.6524 18.8345 20.6524 18.8345C20.6524 18.8345 20.6525 18.8345 20.6525 18.8345C20.6528 18.8348 20.651 18.8331 20.649 18.8311C20.6468 18.8289 20.6431 18.8253 20.6385 18.8209C20.6294 18.8122 20.6144 18.7981 20.5949 18.7816C20.5553 18.7481 20.4927 18.7006 20.4075 18.658L19.5626 20.3474C19.4773 20.3047 19.4145 20.2572 19.3748 20.2236C19.3553 20.207 19.3401 20.1928 19.331 20.1841C19.3264 20.1796 19.3227 20.176 19.3204 20.1738C19.3193 20.1726 19.3183 20.1717 19.3178 20.1711C19.3175 20.1708 19.3172 20.1706 19.3171 20.1705C19.317 20.1704 19.317 20.1703 19.3169 20.1703C19.3169 20.1703 19.3169 20.1703 19.3169 20.1703C19.3169 20.1703 19.3169 20.1703 19.3169 20.1702C19.3169 20.1702 19.3169 20.1702 19.3169 20.1702C19.3166 20.1699 19.3183 20.1717 19.3203 20.1737C19.3225 20.1759 19.3262 20.1795 19.3308 20.1839C19.3399 20.1926 19.355 20.2067 19.3744 20.2232C19.414 20.2567 19.4766 20.3042 19.5618 20.3467L20.4067 18.6574ZM20.4709 18.6928L23.5564 20.5439L22.5847 22.1636L19.4992 20.3126L20.4709 18.6928ZM23.5568 20.5441C24.1301 20.8884 24.3156 21.6319 23.9718 22.2052L22.3519 21.2336C22.1596 21.5543 22.2633 21.9707 22.5844 22.1634L23.5568 20.5441ZM23.9712 22.2061C23.6278 22.7773 22.8852 22.9656 22.3101 22.6204L23.2823 21.0009C22.9602 20.8076 22.5444 20.9135 22.3525 21.2327L23.9712 22.2061ZM22.3104 22.6206L18.5223 20.3482L19.494 18.7284L23.2821 21.0008L22.3104 22.6206ZM18.5226 20.3484C18.6287 20.4119 18.7595 20.4323 18.8829 20.4013L18.4225 18.5694C18.7889 18.4773 19.1727 18.5358 19.4937 18.7282L18.5226 20.3484ZM18.8812 20.4018C19.0038 20.3712 19.1104 20.2915 19.1744 20.1846L17.5533 19.215C17.7464 18.8922 18.0579 18.6603 18.4242 18.569L18.8812 20.4018ZM19.1731 20.1866C19.238 20.0788 19.2569 19.9484 19.2273 19.8286L17.3936 20.282C17.3039 19.9192 17.3602 19.5361 17.5545 19.213L19.1731 20.1866ZM19.2267 19.8262C19.1959 19.7032 19.1165 19.5978 19.0112 19.5345L18.0386 21.1538C17.7177 20.961 17.4857 20.6504 17.3942 20.2843L19.2267 19.8262ZM19.0106 19.5342L19.7478 19.9763L18.7762 21.5962L18.0391 21.1541L19.0106 19.5342ZM19.7479 19.9764L22.7987 21.8067L21.8269 23.4265L18.7761 21.5961L19.7479 19.9764ZM22.799 21.8069C23.3723 22.1512 23.5578 22.8947 23.214 23.468L21.5941 22.4965C21.4018 22.8171 21.5055 23.2335 21.8265 23.4263L22.799 21.8069ZM23.2134 23.4689C22.8694 24.041 22.1269 24.2274 21.5531 23.8837L22.5237 22.2633C22.2029 22.0711 21.7871 22.1755 21.5947 22.4955L23.2134 23.4689ZM21.5525 23.8834L18.4664 22.0318L19.4382 20.4121L22.5243 22.2637L21.5525 23.8834ZM18.4655 22.0313C18.6923 22.1677 18.9832 22.0929 19.1174 21.8694L17.4981 20.8969C17.8994 20.2288 18.7684 20.0092 19.4391 20.4126L18.4655 22.0313ZM19.1174 21.8694C19.1818 21.7622 19.2009 21.6321 19.1712 21.5121L17.3375 21.9655C17.2478 21.6025 17.3042 21.2197 17.4981 20.8969L19.1174 21.8694ZM19.1706 21.5097C19.1397 21.3859 19.0598 21.2809 18.9556 21.2183L17.9823 22.8371C17.6622 22.6446 17.4298 22.3347 17.3381 21.9679L19.1706 21.5097ZM18.9548 21.2178L19.7115 21.6717L18.7398 23.2915L17.9831 22.8376L18.9548 21.2178ZM19.7115 21.6717L22.041 23.0694L21.0692 24.6891L18.7397 23.2914L19.7115 21.6717ZM22.0413 23.0696C22.6147 23.4138 22.8002 24.1573 22.4563 24.7306L20.8365 23.7591C20.6441 24.0797 20.7479 24.4961 21.0689 24.6889L22.0413 23.0696ZM22.4558 24.7316C22.1129 25.3019 21.3702 25.4921 20.7939 25.1454L21.7676 23.5269C21.4443 23.3324 21.0284 23.4399 20.837 23.7582L22.4558 24.7316ZM20.7949 25.146L18.4654 23.7484L19.4372 22.1286L21.7667 23.5263L20.7949 25.146ZM18.4657 23.7486C18.5721 23.8123 18.703 23.8323 18.8247 23.8019L18.3666 21.9694C18.7326 21.8779 19.1155 21.9358 19.4368 22.1284L18.4657 23.7486ZM18.8247 23.8018C18.9462 23.7715 19.0523 23.6928 19.1166 23.5856L17.4969 22.6138C17.6904 22.2914 18.0021 22.0605 18.3666 21.9694L18.8247 23.8018ZM19.117 23.5851C19.1804 23.4791 19.2001 23.3496 19.1701 23.2284L17.3366 23.6823C17.2465 23.3185 17.304 22.9359 17.4966 22.6143L19.117 23.5851ZM19.1696 23.2263C19.1387 23.1025 19.0588 22.9974 18.9546 22.9348L17.9813 24.5536C17.6612 24.3612 17.4288 24.0512 17.3371 23.6844L19.1696 23.2263ZM18.9538 22.9343L23.6763 25.7673L22.7046 27.3871L17.9821 24.5541L18.9538 22.9343ZM23.6763 25.7673C24.2503 26.1116 24.8945 26.2212 25.4892 26.0999L25.8668 27.9506C24.7866 28.171 23.6633 27.9622 22.7046 27.387L23.6763 25.7673ZM25.489 26.0999C26.0731 25.9806 26.5252 25.657 26.7955 25.2062L28.4154 26.1778C27.8574 27.1081 26.9403 27.7314 25.8669 27.9506L25.489 26.0999ZM26.7957 25.2059C27.2583 24.4353 27.1965 23.6045 26.62 22.906L28.0767 21.7036C29.1606 23.0167 29.2914 24.7185 28.4152 26.1781L26.7957 25.2059ZM27.4419 23.2446L27.4416 23.2447L27.2545 21.3651L27.2547 21.365L27.4419 23.2446Z" fill="#4CAF4F" mask="url(#path-4-inside-2_211_2338)"/>
</svg>
