<svg width="78" height="15" viewBox="0 0 78 15" fill="none" xmlns="http://www.w3.org/2000/svg">
<path d="M11.9163 0V14.2466H9.31457L3.11645 5.27988H3.01211V14.2466H0V0H2.64342L8.79284 8.9598H8.91806V0H11.9163Z" fill="#263238"/>
<path d="M19.2187 14.4553C18.1196 14.4553 17.1735 14.2327 16.3805 13.7875C15.5921 13.3377 14.9846 12.7023 14.5579 11.8815C14.1313 11.056 13.9179 10.0798 13.9179 8.95284C13.9179 7.85374 14.1313 6.88912 14.5579 6.05899C14.9846 5.22887 15.5852 4.58193 16.3596 4.11817C17.1387 3.65441 18.0523 3.42253 19.1004 3.42253C19.8053 3.42253 20.4616 3.53615 21.0691 3.76339C21.6812 3.986 22.2146 4.32222 22.6691 4.77207C23.1282 5.22191 23.4853 5.7877 23.7403 6.46942C23.9954 7.1465 24.1229 7.93953 24.1229 8.84849V9.66239H15.1005V7.82591H21.3334C21.3334 7.39925 21.2407 7.02129 21.0552 6.69202C20.8697 6.36275 20.6123 6.10537 20.283 5.91987C19.9584 5.72973 19.5804 5.63466 19.1491 5.63466C18.6993 5.63466 18.3005 5.739 17.9526 5.94769C17.6095 6.15174 17.3405 6.42768 17.1457 6.7755C16.9509 7.11868 16.8512 7.50128 16.8466 7.9233V9.66935C16.8466 10.198 16.944 10.6548 17.1387 11.0398C17.3382 11.4247 17.6187 11.7215 17.9805 11.9302C18.3422 12.1389 18.7712 12.2432 19.2674 12.2432C19.5967 12.2432 19.8981 12.1968 20.1717 12.1041C20.4453 12.0113 20.6795 11.8722 20.8743 11.6867C21.0691 11.5012 21.2175 11.2739 21.3195 11.005L24.0603 11.1858C23.9212 11.8444 23.636 12.4194 23.2047 12.911C22.778 13.398 22.2262 13.7782 21.5491 14.0519C20.8766 14.3208 20.0998 14.4553 19.2187 14.4553Z" fill="#263238"/>
<path d="M28.342 3.56166L30.3037 7.29723L32.3141 3.56166H35.354L32.2584 8.90415L35.4375 14.2466H32.4114L30.3037 10.5528L28.2307 14.2466H25.1699L28.342 8.90415L25.2812 3.56166H28.342Z" fill="#263238"/>
<path d="M41.5591 14.4553C40.4646 14.4553 39.5232 14.2234 38.7348 13.7597C37.951 13.2913 37.3481 12.642 36.9261 11.8119C36.5087 10.9818 36.3 10.0264 36.3 8.94588C36.3 7.85142 36.5111 6.89144 36.9331 6.06595C37.3597 5.23582 37.9649 4.58888 38.7487 4.12512C39.5324 3.65673 40.4646 3.42253 41.5451 3.42253C42.4773 3.42253 43.2935 3.5918 43.9938 3.93035C44.6941 4.26889 45.2482 4.74424 45.6564 5.3564C46.0645 5.96856 46.2894 6.68738 46.3311 7.51287H43.5347C43.4558 6.97955 43.2471 6.55058 42.9086 6.22595C42.5747 5.89668 42.1364 5.73204 41.5938 5.73204C41.1347 5.73204 40.7336 5.85726 40.3904 6.10769C40.0518 6.35348 39.7875 6.71289 39.5974 7.18592C39.4072 7.65896 39.3122 8.2317 39.3122 8.90415C39.3122 9.58587 39.4049 10.1656 39.5904 10.6432C39.7805 11.1209 40.0472 11.485 40.3904 11.7354C40.7336 11.9858 41.1347 12.111 41.5938 12.111C41.9324 12.111 42.2361 12.0415 42.5051 11.9023C42.7787 11.7632 43.0037 11.5615 43.1799 11.2971C43.3608 11.0282 43.479 10.7058 43.5347 10.3302H46.3311C46.2847 11.1464 46.0621 11.8652 45.6633 12.4867C45.2691 13.1035 44.7242 13.5858 44.0286 13.9336C43.3329 14.2814 42.5098 14.4553 41.5591 14.4553Z" fill="#263238"/>
<path d="M53.0979 14.4553C51.9988 14.4553 51.0528 14.2327 50.2597 13.7875C49.4713 13.3377 48.8638 12.7023 48.4372 11.8815C48.0105 11.056 47.7972 10.0798 47.7972 8.95284C47.7972 7.85374 48.0105 6.88912 48.4372 6.05899C48.8638 5.22887 49.4644 4.58193 50.2389 4.11817C51.018 3.65441 51.9316 3.42253 52.9797 3.42253C53.6846 3.42253 54.3408 3.53615 54.9483 3.76339C55.5605 3.986 56.0938 4.32222 56.5483 4.77207C57.0074 5.22191 57.3645 5.7877 57.6196 6.46942C57.8746 7.1465 58.0022 7.93953 58.0022 8.84849V9.66239H48.9798V7.82591H55.2127C55.2127 7.39925 55.1199 7.02129 54.9344 6.69202C54.7489 6.36275 54.4915 6.10537 54.1622 5.91987C53.8376 5.72973 53.4597 5.63466 53.0284 5.63466C52.5785 5.63466 52.1797 5.739 51.8319 5.94769C51.4887 6.15174 51.2197 6.42768 51.0249 6.7755C50.8301 7.11868 50.7304 7.50128 50.7258 7.9233V9.66935C50.7258 10.198 50.8232 10.6548 51.018 11.0398C51.2174 11.4247 51.498 11.7215 51.8597 11.9302C52.2214 12.1389 52.6504 12.2432 53.1466 12.2432C53.4759 12.2432 53.7773 12.1968 54.0509 12.1041C54.3246 12.0113 54.5588 11.8722 54.7535 11.6867C54.9483 11.5012 55.0967 11.2739 55.1987 11.005L57.9396 11.1858C57.8004 11.8444 57.5152 12.4194 57.0839 12.911C56.6573 13.398 56.1054 13.7782 55.4283 14.0519C54.7559 14.3208 53.9791 14.4553 53.0979 14.4553Z" fill="#263238"/>
<path d="M62.8994 8.06938V14.2466H59.936V3.56166H62.7603V5.44683H62.8855C63.122 4.8254 63.5186 4.33381 64.0751 3.97208C64.6316 3.60572 65.3063 3.42253 66.0994 3.42253C66.8414 3.42253 67.4883 3.58485 68.0402 3.90948C68.5921 4.23411 69.021 4.69786 69.3271 5.30075C69.6332 5.899 69.7862 6.61318 69.7862 7.44331V14.2466H66.8228V7.97199C66.8275 7.3181 66.6605 6.80796 66.322 6.44159C65.9834 6.07059 65.5174 5.88508 64.9237 5.88508C64.5249 5.88508 64.1725 5.97088 63.8664 6.14247C63.5649 6.31406 63.3284 6.56449 63.1568 6.89376C62.9899 7.21839 62.9041 7.61026 62.8994 8.06938Z" fill="#263238"/>
<path d="M77.8052 3.56166V5.7877H71.3706V3.56166H77.8052ZM72.8314 1.00172H75.7948V10.9632C75.7948 11.2368 75.8365 11.4502 75.92 11.6032C76.0035 11.7516 76.1194 11.856 76.2678 11.9163C76.4209 11.9765 76.5971 12.0067 76.7965 12.0067C76.9356 12.0067 77.0748 11.9951 77.2139 11.9719C77.353 11.9441 77.4597 11.9232 77.5339 11.9093L78 14.1145C77.8516 14.1608 77.6429 14.2142 77.3739 14.2745C77.1049 14.3394 76.778 14.3788 76.393 14.3927C75.6789 14.4205 75.0528 14.3255 74.5148 14.1075C73.9815 13.8895 73.5664 13.551 73.2696 13.0919C72.9728 12.6328 72.8268 12.0531 72.8314 11.3528V1.00172Z" fill="#263238"/>
</svg>
