<svg width="39" height="34" viewBox="0 0 39 34" fill="none" xmlns="http://www.w3.org/2000/svg">
<rect width="34" height="34" rx="5.56856" fill="#F5F7FA"/>
<g clip-path="url(#clip0_211_2517)">
<path d="M38.9553 13.8241C38.9594 13.7946 38.9594 13.7647 38.9553 13.7352C38.9591 13.7111 38.9591 13.6866 38.9553 13.6625L38.6667 11.5852C38.6251 11.3367 38.5137 11.1044 38.3452 10.9143L38.2957 10.8577L38.205 10.7688L33.2087 6.54957L33.3489 6.68699C33.2342 6.55249 33.0903 6.44491 32.9276 6.37217C32.765 6.29943 32.5877 6.26338 32.409 6.26668H30.892C30.6453 6.26189 30.4042 6.33878 30.2076 6.48492C30.0012 6.33966 29.7527 6.26316 29.4986 6.26668H27.9816C27.7826 6.26352 27.5863 6.31193 27.4126 6.40702C27.2389 6.50212 27.0938 6.64053 26.9922 6.80823C26.8355 7.04775 26.7767 7.33634 26.8273 7.61652L27.017 8.92593C26.8913 8.85611 26.7491 8.81989 26.6047 8.82086H19.2587C18.9951 8.82248 18.7376 8.89822 18.5166 9.03909C18.303 9.17021 18.1314 9.35797 18.022 9.58064L17.4531 9.10375C17.2292 8.90065 16.9336 8.79057 16.6286 8.79661H5.1025C4.838 8.80134 4.57938 8.87378 4.35226 9.00676C4.04153 9.18506 3.81382 9.47497 3.7174 9.81505L0.0567493 21.8181C-0.0116487 22.0159 -0.0183771 22.2292 0.0374256 22.4307C0.0932284 22.6322 0.209035 22.8129 0.370052 22.9497C0.412008 22.9845 0.456061 23.0169 0.50197 23.0466C0.50197 23.0466 0.427756 22.9981 0.386532 22.9578L5.38285 27.1851C5.5942 27.3759 5.87053 27.4825 6.1578 27.4841H17.7746C18.0399 27.4774 18.2987 27.4021 18.5249 27.2659C18.6528 27.1974 18.7673 27.107 18.8629 26.9991L18.9042 26.9426L18.9701 26.8618L19.0196 26.7728L19.5637 27.2336C19.7721 27.4168 20.0424 27.5175 20.3222 27.5165H31.9637C32.2288 27.5078 32.4871 27.4327 32.714 27.2982C32.8391 27.2255 32.9529 27.1357 33.0521 27.0315L33.0933 26.9749L33.1592 26.8941C33.1943 26.843 33.2247 26.7889 33.2499 26.7324C33.2769 26.6834 33.2989 26.632 33.3159 26.5789L36.655 15.6185V15.5215C36.6591 15.4839 36.6591 15.446 36.655 15.4084V15.3357C36.659 15.3115 36.659 15.287 36.655 15.2629C36.6587 15.2118 36.6587 15.1604 36.655 15.1093H37.7268C37.82 15.1177 37.9139 15.1177 38.0071 15.1093H38.0813C38.1417 15.0916 38.1998 15.0672 38.2545 15.0366H38.337L38.4853 14.9234L38.5513 14.8749L38.6667 14.7294V14.6809L38.7492 14.5435C38.7446 14.5168 38.7446 14.4894 38.7492 14.4627C38.7448 14.4496 38.7448 14.4354 38.7492 14.4223C38.7667 14.3749 38.7805 14.3262 38.7904 14.2768C38.7865 14.2608 38.7865 14.2442 38.7904 14.2283C38.7864 14.2042 38.7864 14.1796 38.7904 14.1555C38.7904 14.1555 38.9553 13.8403 38.9553 13.8241Z" fill="black"/>
<path d="M16.9666 9.71812C17.0104 9.75692 17.0409 9.80794 17.0542 9.86431C17.0675 9.92068 17.0628 9.97967 17.0408 10.0333L13.3884 22.0283C13.3424 22.1592 13.2483 22.2687 13.1246 22.3355C13.0239 22.4015 12.9074 22.4405 12.7865 22.4486H1.17801C1.07887 22.4439 0.984945 22.4037 0.914171 22.3355C0.872069 22.2973 0.84252 22.2476 0.829301 22.193C0.816083 22.1383 0.819805 22.0809 0.839972 22.0283L4.50062 10.0333C4.5428 9.90074 4.63393 9.78832 4.7562 9.71812C4.85856 9.65682 4.97456 9.62077 5.09424 9.61304H16.7028C16.8011 9.61397 16.8954 9.65154 16.9666 9.71812ZM10.9067 19.6115L13.0916 12.4501H6.97405L4.79742 19.6115H10.9067ZM28.0475 9.83936C28.0871 9.88448 28.1366 9.92027 28.1923 9.94406C28.248 9.96784 28.3083 9.97903 28.369 9.97676H29.8778C29.9353 9.97732 29.9919 9.9635 30.0424 9.93663C30.0929 9.90976 30.1355 9.87072 30.1664 9.82319C30.1932 9.78607 30.2121 9.74404 30.222 9.69961C30.2319 9.65518 30.2326 9.60925 30.2241 9.56455L29.9273 7.43067C29.899 7.33192 29.8483 7.24072 29.7789 7.16394C29.7392 7.11881 29.6898 7.08303 29.6341 7.05924C29.5784 7.03545 29.518 7.02427 29.4573 7.02653H27.9486C27.8911 7.02598 27.8345 7.0398 27.784 7.06667C27.7335 7.09354 27.6908 7.13258 27.66 7.18011C27.6023 7.29327 27.5775 7.36601 27.6023 7.43067L27.9073 9.56455C27.923 9.66845 27.9721 9.76473 28.0475 9.83936ZM32.8377 7.41451C32.8094 7.31574 32.7586 7.22455 32.6893 7.14777C32.6513 7.10281 32.6033 7.06704 32.549 7.04321C32.4946 7.01938 32.4354 7.00814 32.376 7.01037H30.8589C30.8024 7.00879 30.7465 7.02223 30.6972 7.04926C30.6478 7.0763 30.6069 7.11593 30.5786 7.16394C30.5238 7.23565 30.5 7.32572 30.5127 7.41451L30.8177 9.54838C30.8368 9.65118 30.8854 9.74651 30.9579 9.82319C30.9982 9.86743 31.0478 9.90262 31.1033 9.92633C31.1588 9.95005 31.2188 9.96174 31.2794 9.96059H32.7964C32.8528 9.96133 32.9083 9.94753 32.9575 9.92057C33.0068 9.89362 33.0479 9.85447 33.0768 9.80703C33.1055 9.77087 33.1255 9.72886 33.1355 9.6841C33.1455 9.63935 33.1451 9.59298 33.1345 9.54838L32.8377 7.41451ZM26.7201 10.6476L26.5717 9.59687H19.2586C19.1438 9.60308 19.0327 9.63937 18.9371 9.70195C18.8764 9.73441 18.8235 9.77941 18.7822 9.83383C18.741 9.88826 18.7123 9.95081 18.698 10.0172L18.0879 12.0217C18.0635 12.0718 18.0552 12.128 18.064 12.1828C18.0729 12.2377 18.0984 12.2886 18.1373 12.3289C18.2069 12.3929 18.2976 12.4303 18.393 12.434H27.2808L25.0959 19.5954H16.2328C16.1185 19.5979 16.0072 19.6315 15.9113 19.6923C15.7947 19.7649 15.7095 19.8772 15.6722 20.0076L15.0538 22.0121C15.0337 22.0636 15.0284 22.1194 15.0385 22.1736C15.0488 22.2279 15.074 22.2782 15.1115 22.3192C15.1789 22.3876 15.2703 22.4281 15.3671 22.4324H27.0086C27.129 22.4223 27.2451 22.3834 27.3467 22.3192C27.4684 22.2522 27.5597 22.1425 27.6023 22.0121L30.9496 11.0518H27.1818C27.122 11.0529 27.0626 11.0421 27.0073 11.0198C26.952 10.9976 26.902 10.9644 26.8603 10.9225C26.7921 10.8492 26.7439 10.7602 26.7201 10.6638V10.6476Z" fill="white"/>
</g>
<defs>
<clipPath id="clip0_211_2517">
<rect width="38.2838" height="20.8821" fill="white" transform="translate(0 6.26647) scale(1.01762)"/>
</clipPath>
</defs>
</svg>
